<?xml version="1.0" standalone="no"?>
<!DOCTYPE svg PUBLIC "-//W3C//DTD SVG 20010904//EN"
        "http://www.w3.org/TR/2001/REC-SVG-20010904/DTD/svg10.dtd">
<svg version="1.0" xmlns="http://www.w3.org/2000/svg"
     width="1024.000000pt" height="1024.000000pt" viewBox="0 0 1024.000000 1024.000000"
     preserveAspectRatio="xMidYMid meet">

    <g transform="translate(0.000000,1024.000000) scale(0.100000,-0.100000)"
       fill="#000000" stroke="none">
        <path d="M0 7077 l0 -3162 40 0 c25 0 40 4 40 12 0 7 7 10 16 6 13 -5 13 -7 2
-14 -10 -7 -9 -9 4 -9 9 0 20 5 23 10 4 6 12 10 18 9 7 -2 34 1 60 6 32 5 52
4 60 -4 8 -8 16 -6 29 6 10 8 39 18 65 20 27 2 60 8 75 14 15 6 32 8 37 4 6
-3 11 -1 11 5 0 7 8 9 20 5 12 -4 31 0 45 9 13 9 31 13 39 10 8 -3 28 2 44 10
19 10 42 13 61 10 23 -5 31 -3 31 7 0 11 2 11 10 -1 8 -13 11 -12 24 5 11 14
15 16 16 5 0 -11 3 -11 12 -2 7 7 31 12 54 12 25 0 49 6 58 15 11 11 36 16 81
16 57 1 65 3 65 20 0 15 7 19 33 19 17 0 48 4 66 10 19 5 59 10 88 11 34 1 52
6 50 13 -3 7 11 10 41 7 33 -2 47 1 54 12 5 9 15 14 23 11 8 -4 20 6 30 25 16
32 39 41 48 19 4 -9 8 -10 14 -2 4 5 17 11 28 11 81 4 98 14 88 52 -5 22 -4
24 9 14 11 -10 19 -9 39 4 13 9 27 22 32 27 4 7 9 2 13 -11 8 -28 30 -30 44
-4 7 13 16 17 31 14 16 -4 20 -2 17 8 -3 8 -11 13 -17 12 -27 -7 -8 14 25 26
42 15 58 3 49 -36 -3 -12 -1 -25 5 -28 6 -3 8 2 5 12 -3 10 0 6 7 -8 7 -14 19
-33 26 -42 8 -9 14 -22 16 -29 1 -7 12 -30 24 -49 12 -20 22 -41 22 -47 0 -6
-17 -28 -38 -49 -62 -62 -140 -167 -177 -238 -32 -61 -46 -113 -27 -102 4 3 7
-20 7 -51 0 -47 -4 -59 -28 -83 -22 -23 -27 -37 -27 -76 0 -48 36 -143 59
-157 7 -4 11 -42 11 -95 l0 -89 -45 -7 c-25 -3 -79 -1 -120 6 -78 12 -141 6
-114 -12 8 -5 43 -6 79 -3 36 4 62 3 57 -2 -4 -4 -26 -9 -49 -10 -117 -6 -239
-17 -383 -35 -163 -20 -342 -34 -405 -32 -19 1 -48 2 -65 2 -16 1 -48 0 -70
-1 -28 -2 -39 1 -37 10 4 20 -16 14 -23 -8 -5 -16 -14 -20 -43 -19 -23 1 -29
3 -14 6 20 4 20 6 7 19 -20 20 -105 26 -105 7 0 -15 -43 -16 -105 -4 -39 8
-39 9 -7 10 17 0 32 6 32 11 0 14 -56 12 -118 -4 -28 -8 -50 -10 -46 -5 3 5
12 9 20 9 8 0 14 4 14 9 0 12 -39 21 -46 10 -3 -5 -20 -9 -37 -8 l-32 1 35 13
35 13 -32 1 c-19 1 -36 8 -42 18 -6 10 -11 12 -11 6 0 -15 -30 -18 -30 -3 0 6
-7 10 -15 10 -13 0 -15 -186 -15 -1610 l0 -1610 5120 0 5120 0 0 1638 0 1639
-30 -5 c-16 -2 -30 0 -30 5 0 6 -35 9 -79 9 -44 -1 -77 -4 -75 -8 5 -7 -101
-2 -114 6 -4 2 -41 8 -81 11 -56 5 -71 3 -65 -6 5 -8 3 -9 -7 -3 -8 4 -21 9
-29 9 -8 0 -32 4 -53 9 -26 6 -42 4 -52 -4 -8 -7 -15 -9 -15 -4 0 5 -26 10
-58 11 -52 2 -55 1 -34 -11 22 -12 19 -13 -31 -12 -54 1 -63 9 -22 19 11 2 6
3 -11 2 -18 -2 -36 1 -41 6 -9 9 -93 13 -203 8 -121 -6 -241 3 -247 17 -3 8
-9 11 -15 8 -5 -3 4 -17 19 -32 27 -25 27 -25 4 -19 -18 4 -21 3 -12 -6 6 -6
11 -15 11 -19 0 -13 -20 -9 -36 7 -9 8 -30 15 -47 15 -22 0 -28 -3 -18 -9 7
-5 22 -6 32 -4 10 3 19 0 19 -6 0 -6 -7 -11 -15 -11 -17 0 -19 -9 -6 -28 9
-15 198 -15 208 1 3 6 8 5 12 0 3 -6 71 -17 151 -27 80 -9 210 -25 290 -35 80
-11 204 -22 277 -26 83 -5 133 -11 136 -19 3 -7 -11 -11 -39 -11 -23 0 -38 3
-31 7 8 5 7 8 -4 8 -9 0 -24 -11 -33 -25 l-16 -25 36 0 c30 0 35 -3 29 -17 -4
-13 -3 -15 5 -7 12 12 72 6 65 -7 -3 -4 -12 -6 -20 -3 -8 3 -20 2 -27 -2 -13
-9 -18 -10 -38 -13 -18 -2 -11 -18 10 -24 11 -3 20 -11 20 -19 0 -9 -3 -9 -8
-2 -4 6 -32 11 -62 12 -110 1 -280 11 -290 17 -6 3 -13 -2 -17 -11 -6 -17 -7
-17 -13 0 -5 14 -23 18 -104 22 -54 3 -103 1 -109 -4 -7 -6 -32 -9 -57 -7 -25
2 -53 -1 -62 -6 -11 -6 -19 -5 -23 2 -4 6 -13 8 -20 5 -7 -2 -26 -1 -42 4 -20
6 5 9 81 9 60 1 107 3 104 6 -8 8 -249 11 -254 3 -3 -5 3 -8 12 -8 16 0 16 -1
-2 -14 -14 -11 -21 -11 -26 -3 -6 9 -8 8 -8 -2 0 -12 -31 -13 -197 -6 -109 4
-234 9 -277 11 -88 3 -90 4 -100 73 -10 67 -79 201 -128 250 -53 52 -134 107
-187 125 -21 8 -72 20 -114 27 l-75 13 49 66 c130 180 344 556 423 748 l22 53
14 -26 c7 -14 17 -25 22 -25 5 0 6 -4 3 -10 -3 -6 5 -10 19 -10 28 0 42 -15
25 -25 -14 -9 -59 14 -59 30 0 7 -6 18 -14 24 -11 9 -15 8 -20 -4 -3 -10 -2
-14 5 -10 6 4 13 -2 16 -14 3 -12 9 -21 14 -21 5 0 6 -6 3 -14 -4 -11 0 -13
15 -9 12 3 21 1 21 -4 0 -9 107 -9 117 0 3 3 12 0 20 -8 8 -8 28 -15 44 -15
16 0 29 -4 29 -10 0 -5 18 -13 40 -16 24 -4 40 -12 40 -20 0 -9 12 -14 33 -14
17 0 49 -5 70 -11 25 -7 42 -7 50 -1 19 16 87 26 87 13 0 -6 8 -11 18 -12 14
0 14 -2 -3 -9 -17 -7 -15 -9 12 -9 17 -1 34 5 37 12 4 6 4 2 2 -10 -2 -12 -1
-22 3 -21 3 0 21 0 40 -1 23 -1 32 -5 28 -14 -4 -10 7 -13 44 -13 29 1 53 -4
57 -11 9 -14 59 -19 83 -9 10 4 20 3 24 -3 3 -6 17 -11 30 -11 13 0 27 -5 30
-10 4 -6 -5 -10 -19 -10 -23 0 -39 -19 -18 -21 4 0 17 -2 30 -5 14 -2 25 2 28
11 8 20 28 19 49 -1 12 -12 19 -13 29 -5 16 14 59 5 94 -17 13 -8 36 -15 52
-14 16 0 32 -3 35 -8 3 -5 22 -6 43 -3 34 6 36 5 23 -10 -12 -15 -11 -17 2
-17 9 0 22 6 29 13 10 12 20 10 58 -10 31 -16 71 -26 121 -30 41 -3 79 -10 85
-14 6 -5 38 -11 70 -14 74 -5 74 -5 44 -15 -24 -8 -23 -8 8 -9 l32 -1 0 3185
0 3185 -5120 0 -5120 0 0 -3163z m5525 2217 c357 -45 686 -133 985 -263 114
-50 254 -121 258 -133 2 -4 11 -8 20 -8 17 0 134 -69 119 -70 -4 0 -24 7 -44
15 -49 21 -55 18 -13 -6 28 -16 30 -19 10 -15 -14 3 -35 6 -47 6 -15 0 -21 5
-17 14 7 18 -38 42 -85 45 -42 2 -58 11 -40 22 8 5 -2 6 -25 2 -23 -3 -37 -2
-34 3 4 5 -6 10 -20 11 -15 0 -28 6 -30 12 -2 6 -7 9 -12 6 -5 -3 -37 8 -72
24 -267 123 -713 232 -1067 262 -172 14 -536 6 -696 -16 -271 -37 -608 -129
-875 -240 -133 -55 -329 -152 -404 -199 -28 -18 -89 -55 -135 -82 -206 -121
-511 -380 -729 -620 -82 -89 -304 -385 -369 -491 -27 -46 -53 -80 -57 -76 -3
3 -6 -3 -6 -13 0 -11 -7 -29 -16 -40 -8 -10 -12 -13 -8 -5 4 9 2 12 -7 9 -8
-3 -16 -13 -17 -23 -3 -11 0 -15 7 -10 6 3 -1 -19 -16 -50 -15 -31 -29 -52
-31 -46 -2 5 2 20 8 33 11 22 10 22 -9 -2 -11 -14 -21 -35 -21 -47 0 -17 -4
-20 -21 -16 -20 6 -21 3 -15 -23 l6 -29 -15 25 c-8 15 -14 19 -14 10 -1 -8 3
-21 8 -29 10 -16 4 -41 -10 -41 -4 0 -6 6 -3 14 3 8 1 23 -6 33 -9 16 -10 15
-5 -7 5 -21 4 -22 -5 -8 -25 41 214 452 407 698 382 487 862 863 1403 1097
374 163 755 253 1205 287 98 7 442 -5 560 -20z m29 -130 c8 -3 20 -21 26 -39
10 -31 15 -34 78 -45 183 -31 493 -117 686 -191 185 -71 495 -224 558 -277 15
-13 20 -11 43 14 l27 29 -22 -32 c-12 -18 -23 -33 -24 -33 -9 0 -74 36 -95 52
-13 10 -32 18 -42 18 -11 0 -19 5 -19 11 0 6 -9 8 -22 4 -18 -5 -20 -4 -8 4 8
6 12 11 8 12 -51 9 -85 22 -102 37 -11 9 -16 12 -13 5 5 -7 0 -9 -14 -6 -13 4
-17 8 -9 13 6 4 -2 7 -19 6 -24 -1 -30 -5 -25 -18 2 -9 0 -19 -5 -23 -7 -3 -8
0 -5 9 3 9 1 16 -5 16 -6 0 -11 -5 -11 -10 0 -11 -58 -4 -75 9 -5 5 -32 16
-60 26 -27 10 -54 22 -60 25 -10 7 -204 74 -300 103 -78 24 -357 87 -453 102
-48 8 -171 20 -273 27 -534 35 -1133 -101 -1663 -377 -313 -163 -523 -316
-765 -556 -189 -189 -303 -328 -460 -561 -60 -89 -75 -106 -89 -98 -9 6 -30
14 -45 20 -24 8 -26 13 -17 30 6 11 15 18 20 15 6 -3 7 0 5 7 -7 18 129 225
239 363 114 144 314 355 435 459 101 87 309 243 374 280 33 18 37 25 33 49 -5
26 -2 30 39 48 38 17 47 18 59 6 12 -11 40 0 188 73 329 164 655 264 1058 327
92 14 178 18 427 18 172 0 313 4 313 8 0 12 42 46 57 47 6 0 18 -3 27 -6z
m-3487 -160 c11 -29 -14 -64 -46 -64 -36 0 -47 24 -26 56 18 28 62 32 72 8z
m4709 -152 c16 -9 14 -10 -17 -8 -19 2 -44 8 -55 14 -16 9 -14 10 17 8 19 -2
44 -8 55 -14z m-1429 0 c6 -4 -91 -7 -215 -7 -125 0 -211 3 -192 6 50 9 393
10 407 1z m263 -62 c81 -11 271 -49 278 -55 2 -2 -4 -20 -14 -41 -10 -24 -18
-34 -21 -25 -3 7 1 17 8 22 19 12 6 20 -38 24 -34 2 -35 2 -8 -5 28 -7 29 -7
5 -10 l-25 -2 25 -7 c21 -6 22 -8 8 -13 -10 -4 -85 4 -167 17 -217 36 -315 45
-506 45 -208 0 -452 -29 -698 -84 -18 -4 -24 5 -41 60 -6 19 1 22 101 44 60
13 150 28 201 34 123 14 780 12 892 -4z m1327 4 c-3 -3 -12 -4 -19 -1 -8 3 -5
6 6 6 11 1 17 -2 13 -5z m23 -75 c0 -14 -17 -10 -23 5 -4 10 -1 13 9 9 7 -3
14 -9 14 -14z m128 -20 c1 -8 -11 -30 -28 -49 -16 -19 -27 -28 -24 -19 3 10 1
20 -5 24 -6 3 -11 12 -11 18 0 9 3 8 8 -1 5 -7 16 -10 25 -6 10 3 14 11 10 18
-13 21 -11 34 6 32 9 -2 17 -9 19 -17z m-82 -43 c-2 -6 -5 -3 -5 7 -1 19 -21
24 -21 5 0 -6 -3 -9 -6 -6 -3 4 0 17 7 29 l12 23 9 -24 c5 -13 7 -28 4 -34z
m-391 24 c-3 -5 -12 -10 -18 -10 -7 0 -6 4 3 10 19 12 23 12 15 0z m486 -23
c-10 -9 -11 -8 -5 6 3 10 9 15 12 12 3 -3 0 -11 -7 -18z m-89 -69 c-7 -7 -12
-8 -12 -2 0 14 12 26 19 19 2 -3 -1 -11 -7 -17z m-1601 1 c410 -41 903 -216
1249 -441 115 -74 364 -261 377 -282 4 -6 -6 0 -22 12 -17 12 -41 30 -55 39
-14 9 -35 26 -47 37 -13 11 -23 16 -23 12 0 -4 -18 10 -40 31 -21 21 -67 55
-102 76 -35 21 -92 56 -128 78 -78 47 -314 164 -423 208 -289 118 -549 169
-902 178 -266 6 -406 -4 -615 -46 -331 -67 -490 -121 -795 -273 -155 -78 -244
-132 -385 -237 -145 -108 -216 -170 -360 -313 -125 -124 -156 -158 -130 -143
12 6 13 5 2 -6 -7 -8 -28 -12 -52 -10 -34 2 -51 -6 -135 -65 -53 -38 -103 -69
-111 -70 -101 -15 -187 -9 -141 9 9 4 9 6 0 6 -7 1 -33 -20 -59 -46 -47 -49
-81 -105 -95 -158 -6 -22 -8 -15 -5 26 8 108 94 226 199 274 71 33 180 49 238
36 59 -14 55 -15 76 18 35 56 229 255 358 368 272 239 627 436 1015 563 127
42 359 93 520 114 128 17 450 20 591 5z m-1378 -21 c15 -23 1 -48 -27 -48 -33
0 -46 38 -20 57 21 15 34 13 47 -9z m2342 -48 c3 -5 -8 -16 -25 -25 -24 -12
-30 -13 -30 -2 0 28 41 49 55 27z m-1195 -58 l0 -49 128 -6 c224 -12 451 -58
702 -144 106 -36 234 -92 228 -99 -6 -6 -78 19 -78 27 0 6 -37 20 -65 24 -5 1
-21 7 -35 12 -14 6 -31 8 -38 6 -7 -3 -18 -1 -25 5 -28 23 -91 34 -122 21 -16
-7 -34 -12 -40 -11 -5 1 -59 11 -120 22 -299 56 -366 64 -560 64 -473 0 -979
-150 -1392 -415 -87 -56 -249 -172 -263 -189 -3 -3 -45 -40 -95 -82 -49 -42
-106 -91 -125 -108 -19 -18 -45 -42 -58 -53 -21 -20 -22 -20 -16 -3 5 14 4 17
-5 11 -10 -6 -11 -3 -2 14 7 11 9 21 6 21 -7 0 -13 -6 -67 -67 -21 -23 -40
-38 -43 -32 -13 20 216 255 370 379 225 181 568 370 830 459 219 74 449 122
645 136 47 3 109 8 138 11 l52 5 0 45 c0 40 2 44 25 44 23 0 25 -3 25 -48z
m1984 -41 c-2 -3 -12 3 -22 13 -16 17 -16 18 5 5 12 -7 20 -15 17 -18z m-3517
-4 c-181 -117 -283 -188 -332 -230 -83 -70 -101 -81 -41 -25 28 26 85 73 126
104 74 55 248 165 259 163 3 0 -2 -6 -12 -12z m-2047 -56 c58 -22 112 -76 141
-140 25 -55 27 -159 5 -240 -17 -61 -32 -83 -22 -32 12 62 -48 201 -87 201
-10 0 -16 4 -12 9 3 5 -4 13 -16 16 -12 4 -18 12 -15 21 4 9 -2 14 -15 14 -11
0 -22 6 -25 14 -3 8 -12 12 -20 9 -7 -3 -17 2 -20 11 -8 22 -61 43 -139 57
-58 10 -67 9 -112 -12 -26 -13 -52 -25 -58 -27 -5 -3 -1 5 9 17 74 83 272 125
386 82z m1994 -69 c-33 -22 -244 -165 -269 -183 -20 -14 -16 -8 10 16 49 44
258 186 264 179 3 -3 1 -8 -5 -12z m1683 -96 c63 -42 98 -119 97 -211 0 -38
-6 -88 -13 -110 -19 -56 -80 -135 -99 -127 -11 4 -14 1 -9 -11 4 -11 2 -14 -7
-11 -8 3 -17 1 -20 -5 -4 -6 -13 -8 -21 -5 -8 4 -12 11 -8 17 3 6 1 7 -5 3 -9
-5 -9 -13 -2 -27 7 -11 7 -19 1 -19 -5 0 -12 6 -14 13 -4 8 -6 7 -6 -3 0 -8 4
-22 9 -30 9 -13 12 -12 25 4 8 11 15 15 15 10 0 -23 -25 -44 -47 -38 -13 4
-23 10 -23 15 0 11 -46 -35 -95 -96 -22 -28 -48 -59 -57 -70 -9 -11 -24 -29
-33 -40 -14 -19 -15 -19 -5 8 8 23 51 90 108 168 8 11 11 27 7 41 -10 30 -85
100 -101 94 -25 -9 -68 101 -73 183 -6 129 32 211 121 256 47 24 62 26 133 23
67 -4 87 -9 122 -32z m1019 -57 c19 -11 34 -23 34 -26 0 -4 -62 30 -79 44 -16
12 18 -1 45 -18z m129 -67 c-3 -3 -11 0 -18 7 -9 10 -8 11 6 5 10 -3 15 -9 12
-12z m-1589 -71 c-12 -13 -16 -38 -16 -92 l0 -74 -19 31 c-23 38 -34 46 -54
38 -33 -12 -25 -33 24 -63 47 -30 65 -49 33 -37 -8 3 -12 2 -9 -4 3 -6 14 -10
23 -10 13 0 14 -2 3 -9 -13 -9 -50 -2 -111 20 -45 16 -140 81 -140 95 0 20
122 92 200 118 76 25 97 21 66 -13z m2422 10 c5 -32 -23 -54 -49 -40 -11 5
-19 18 -19 27 0 45 62 56 68 13z m-1683 -26 c73 -35 125 -70 125 -85 0 -10
-124 -5 -140 5 -6 3 -7 0 -4 -9 3 -9 -1 -22 -9 -30 -13 -14 -14 -11 -10 24 4
28 2 40 -6 40 -7 0 -20 8 -29 17 -16 16 -17 13 -22 -49 -7 -95 -20 -96 -20 -1
0 68 -3 85 -22 108 l-22 28 45 -7 c24 -4 76 -22 114 -41z m555 5 c0 -21 -15
-27 -25 -10 -7 12 2 30 16 30 5 0 9 -9 9 -20z m570 -86 c0 -2 -9 0 -20 6 -11
6 -20 13 -20 16 0 2 9 0 20 -6 11 -6 20 -13 20 -16z m-400 -5 c0 -6 -4 -7 -10
-4 -5 3 -10 11 -10 16 0 6 5 7 10 4 6 -3 10 -11 10 -16z m780 -74 c13 -14 21
-25 18 -25 -2 0 -15 11 -28 25 -13 14 -21 25 -18 25 2 0 15 -11 28 -25z
m-2726 -29 c-51 -22 -82 -27 -39 -6 22 11 47 19 55 19 8 0 1 -6 -16 -13z m-94
-36 c-8 -5 -22 -9 -30 -9 -10 0 -8 3 5 9 27 12 43 12 25 0z m734 -16 c3 -8 2
-12 -4 -9 -6 3 -10 10 -10 16 0 14 7 11 14 -7z m1927 -11 c13 -16 12 -17 -3
-4 -10 7 -18 15 -18 17 0 8 8 3 21 -13z m-1851 -74 c0 -6 -4 -7 -10 -4 -5 3
-10 11 -10 16 0 6 5 7 10 4 6 -3 10 -11 10 -16z m-382 -65 c-4 -25 -32 -24
-36 0 -4 21 18 40 31 27 5 -5 7 -17 5 -27z m950 -11 c3 -22 -28 -40 -48 -28
-12 7 -13 38 -3 49 15 14 48 1 51 -21z m620 -71 c3 -9 -2 -13 -14 -10 -9 1
-19 9 -22 16 -3 9 2 13 14 10 9 -1 19 -9 22 -16z m610 -17 c12 -14 22 -31 22
-38 0 -7 -4 -6 -10 3 -5 8 -13 15 -17 15 -4 1 -18 6 -30 13 -19 10 -24 9 -36
-9 -9 -13 -17 -16 -22 -10 -11 20 -51 12 -63 -11 -7 -15 -11 -18 -11 -8 -1 22
27 60 53 71 35 14 89 2 114 -26z m1063 -15 c29 -6 57 -6 61 -2 11 11 58 3 58
-9 0 -5 -7 -6 -15 -3 -11 5 -13 2 -9 -10 3 -9 12 -16 19 -16 30 0 34 -79 8
-150 -4 -8 -5 -23 -4 -34 2 -10 -2 -15 -7 -12 -12 7 -24 -22 -15 -37 3 -7 3
-9 -2 -5 -4 4 -20 -12 -35 -35 -33 -52 -108 -135 -300 -330 -80 -81 -145 -152
-145 -157 0 -17 -140 -140 -154 -135 -9 3 -11 0 -7 -10 3 -9 -8 -25 -31 -42
-20 -16 -52 -44 -72 -63 -20 -20 -54 -49 -76 -65 -47 -35 -63 -47 -122 -98
-98 -83 -486 -378 -573 -436 -48 -32 85 95 186 178 44 36 125 102 180 146 127
103 422 365 540 481 128 124 228 236 303 335 l63 84 -78 -85 c-176 -192 -574
-567 -699 -658 -31 -23 109 112 210 201 159 141 405 389 488 492 83 104 137
201 137 247 0 44 -41 68 -116 68 -139 0 -301 -50 -829 -256 -175 -68 -209 -83
-202 -90 3 -3 14 -1 26 5 49 27 470 166 610 201 129 33 172 40 253 40 93 0 98
-1 114 -25 15 -23 15 -28 0 -60 -9 -19 -21 -35 -25 -35 -5 0 -12 -10 -16 -22
-4 -16 -8 -19 -12 -10 -5 14 -17 -1 -42 -53 -43 -90 -398 -452 -761 -776 -193
-172 -660 -535 -673 -523 -2 3 -19 -9 -36 -26 -18 -18 -36 -28 -42 -24 -7 4
-9 3 -6 -4 7 -10 -87 -89 -158 -132 -22 -13 -58 -38 -80 -56 -22 -17 -79 -58
-126 -90 -47 -33 -117 -80 -155 -107 -143 -98 -549 -360 -744 -479 -83 -50
-388 -225 -490 -281 -167 -90 -312 -167 -314 -167 -2 0 -106 -50 -232 -111
-484 -234 -907 -406 -1152 -468 -116 -30 -270 -54 -334 -52 -46 1 -56 -1 -52
-13 12 -30 117 -27 274 8 95 21 251 63 301 80 50 18 71 20 49 6 -11 -7 -6 -9
17 -7 34 2 47 17 16 17 -10 1 5 9 32 19 28 10 72 28 99 39 55 25 60 26 51 12
-7 -11 8 -14 19 -3 3 4 12 8 19 9 17 3 87 34 87 38 0 2 -10 2 -22 0 -13 -2
-10 1 7 7 230 84 724 318 1120 529 39 21 133 70 210 110 271 141 704 392 925
536 64 41 303 193 328 208 6 4 12 5 12 3 0 -6 -369 -252 -490 -327 -118 -74
-441 -270 -444 -270 -1 0 -52 -28 -112 -61 -539 -302 -1095 -591 -1424 -739
-159 -72 -419 -176 -461 -185 -19 -4 -45 -13 -59 -20 -37 -20 -347 -110 -430
-126 -25 -4 -105 -11 -178 -15 -73 -4 -135 -11 -138 -15 -3 -5 -26 -6 -52 -4
l-47 5 45 -14 45 -14 -37 -1 c-41 -1 -90 17 -82 30 3 5 -1 6 -9 4 -25 -10 -52
34 -52 84 0 73 85 236 173 334 131 145 175 191 253 267 85 84 117 113 294 265
132 114 132 114 235 196 226 180 545 414 755 556 89 60 89 61 75 140 -46 250
-42 540 10 704 11 35 20 76 20 91 0 15 5 30 10 33 6 4 8 11 4 16 -7 12 44 219
57 233 12 13 11 26 -1 26 -5 0 -10 -6 -10 -12 0 -8 -15 -14 -35 -15 -26 -2
-35 1 -35 12 0 21 27 30 44 15 12 -9 17 -7 26 10 6 11 15 18 21 15 13 -9 11 9
-3 24 -8 8 -8 11 -2 8 8 -4 14 7 19 30 5 26 3 39 -5 41 -9 3 -9 7 1 13 11 7
10 9 -5 9 -15 0 -16 3 -6 15 11 13 8 15 -21 15 -32 1 -33 1 -15 15 19 14 17
15 -20 16 l-39 1 38 16 c21 10 35 22 32 30 -2 6 0 12 5 12 6 0 10 5 10 10 0 6
-12 10 -27 10 -27 1 -26 2 12 22 49 26 85 63 85 88 0 10 5 20 11 22 7 2 12 18
13 36 0 18 4 32 9 32 21 0 2 40 -35 73 -26 24 -34 34 -19 27 26 -13 131 -20
131 -9 0 4 -7 14 -15 23 -8 8 -15 25 -15 38 1 23 1 23 26 -6 27 -31 61 -39 82
-19 10 9 10 18 2 32 -15 29 -12 40 10 38 21 -1 28 -23 8 -29 -8 -3 -8 -9 0
-24 10 -17 11 -17 12 -2 0 10 11 20 25 24 34 8 45 33 36 76 -8 32 -6 36 10 33
11 -2 19 1 19 7 0 6 9 3 20 -7 20 -18 20 -17 21 21 l1 39 8 -34 c4 -18 15 -40
24 -49 15 -15 16 -14 17 8 l0 25 11 -22 c8 -16 20 -23 40 -23 33 0 48 12 74
60 l19 35 3 -27 c3 -24 21 -41 22 -20 0 4 19 27 41 52 23 25 38 36 34 25 -8
-22 -16 -137 -8 -117 8 20 23 14 23 -9 0 -17 3 -19 13 -10 9 7 24 8 45 2 17
-5 33 -6 37 -3 4 4 23 7 43 8 21 0 107 4 192 9 85 5 161 9 169 8 7 -1 66 -4
130 -8 124 -6 226 -20 264 -34 13 -5 37 -12 53 -15 117 -22 178 -37 188 -45 6
-5 30 -15 54 -22 23 -6 42 -16 42 -21 0 -5 5 -6 11 -2 6 3 14 3 18 -2 3 -5 31
-20 61 -34 30 -14 57 -28 60 -31 3 -3 24 -16 48 -28 65 -33 190 -117 247 -166
51 -43 52 -44 81 -28 596 320 1270 606 1559 661 70 13 76 13 136 2z m154 -30
c3 -6 -1 -7 -9 -4 -18 7 -21 14 -7 14 6 0 13 -4 16 -10z m-5044 -33 c48 -32
96 -100 114 -159 15 -52 19 -153 7 -196 l-7 -23 -47 33 c-47 32 -48 34 -48 88
-1 30 -7 66 -14 80 -13 22 -14 18 -9 -43 6 -68 0 -85 -17 -44 l-9 22 0 -24 -1
-23 -21 23 c-19 23 -20 23 -10 2 13 -27 14 -33 2 -33 -5 0 -13 14 -16 31 -10
44 -84 116 -129 124 -41 8 -46 22 -14 34 13 5 23 17 23 27 0 12 7 18 17 18 10
-1 15 2 12 7 -3 5 -1 9 3 9 5 0 26 16 47 35 45 41 70 44 117 12z m207 -55 c3
-17 -2 -20 -33 -20 -43 0 -55 20 -30 48 16 18 21 19 39 6 12 -7 22 -22 24 -34z
m232 -56 c0 -2 -14 -21 -31 -42 -24 -30 -31 -34 -26 -16 4 18 1 22 -20 22 -14
0 -37 8 -51 18 -28 20 -60 35 -77 36 -9 1 -9 46 0 74 3 9 35 -3 105 -38 55
-28 100 -52 100 -54z m-1190 74 c22 -11 40 -23 40 -25 0 -10 -64 -120 -72
-123 -4 -2 -8 -11 -8 -20 -1 -22 -49 -112 -49 -92 -1 8 6 27 13 43 13 23 13
27 0 27 -8 0 -14 -6 -14 -14 0 -8 -4 -18 -10 -21 -6 -4 -7 1 -3 11 4 12 2 15
-8 12 -8 -3 -15 -10 -15 -16 -1 -7 -2 -16 -3 -21 0 -5 -8 -11 -16 -15 -13 -4
-13 -2 -5 14 17 33 11 36 -10 5 -11 -16 -22 -42 -26 -57 -3 -16 -9 -28 -14
-28 -10 0 16 69 69 185 42 90 79 155 87 155 3 0 23 -9 44 -20z m1273 -113 c96
-45 101 -51 82 -113 -8 -27 -27 -62 -41 -78 -27 -30 -42 -30 -26 1 5 10 12 30
16 45 6 26 2 30 -66 64 -40 20 -74 38 -76 39 -4 3 30 75 36 75 2 0 36 -15 75
-33z m327 17 c11 -12 11 -18 -1 -30 -13 -12 -18 -12 -34 0 -16 12 -17 16 -6
30 17 20 25 20 41 0z m4600 7 c0 -6 -4 -13 -10 -16 -5 -3 -10 1 -10 9 0 9 5
16 10 16 6 0 10 -4 10 -9z m-5220 -36 c69 -35 94 -55 67 -55 -8 0 -18 -12 -21
-26 l-7 -25 -17 21 c-9 11 -35 27 -56 34 -32 11 -43 21 -52 50 -17 47 -6 47
86 1z m3195 -45 c0 -27 -22 -39 -31 -16 -8 22 3 49 19 43 6 -2 12 -14 12 -27z
m-4522 7 c3 -8 -1 -14 -8 -14 -7 0 -11 6 -8 14 3 7 6 13 8 13 2 0 5 -6 8 -13z
m-22 -44 c-5 -10 -17 -27 -25 -38 -14 -17 -14 -14 1 18 9 20 21 37 25 37 5 0
4 -8 -1 -17z m1916 -9 c-9 -9 -28 6 -21 18 4 6 10 6 17 -1 6 -6 8 -13 4 -17z
m-1434 -138 c5 -96 -10 -87 -24 14 -11 76 -4 124 11 84 5 -12 10 -56 13 -98z
m3637 74 c0 -5 -4 -10 -10 -10 -5 0 -10 5 -10 10 0 6 5 10 10 10 6 0 10 -4 10
-10z m-2718 -33 l37 -23 -34 -60 c-19 -32 -35 -53 -35 -45 0 7 -6 11 -15 8 -8
-4 -17 -2 -20 4 -4 5 -11 6 -17 3 -13 -8 -2 56 17 104 16 38 19 38 67 9z
m-1145 -9 c-3 -8 -6 -5 -6 6 -1 11 2 17 5 13 3 -3 4 -12 1 -19z m661 2 c-7
-10 -14 -18 -15 -16 -6 6 9 36 18 36 5 0 4 -9 -3 -20z m-777 -63 c-10 -9 -11
-8 -5 6 3 10 9 15 12 12 3 -3 0 -11 -7 -18z m1064 -15 c-3 -3 -11 0 -18 7 -9
10 -8 11 6 5 10 -3 15 -9 12 -12z m346 -3 c15 -15 19 -28 14 -47 -20 -83 -138
-283 -157 -264 -6 6 -1 23 15 48 45 72 99 175 94 180 -3 3 -13 -8 -23 -25 -23
-38 -32 -39 -40 -3 -3 15 -7 33 -10 40 -2 8 1 10 8 6 8 -5 9 -2 5 9 -7 19 37
77 59 77 8 0 23 -9 35 -21z m5431 -42 c-17 -18 -38 -50 -46 -72 l-15 -40 0 35
c-1 49 42 109 78 110 9 0 3 -12 -17 -33z m-1211 -130 c-6 -8 -9 -16 -6 -19 3
-2 -2 -5 -10 -5 -13 0 -13 3 2 19 19 21 31 25 14 5z m-4643 -90 c19 -4 46 -15
60 -25 15 -10 47 -26 72 -35 83 -31 110 -53 110 -89 0 -39 -30 -107 -55 -128
-17 -14 -18 -13 -11 15 20 82 20 82 -13 96 -17 8 -31 20 -31 27 0 8 -7 11 -19
7 -10 -3 -28 2 -41 13 -20 16 -21 21 -11 41 18 33 5 38 -24 11 l-25 -23 -1 24
c-1 13 -1 29 0 35 1 6 -11 9 -28 6 -30 -4 -75 13 -67 26 3 4 -15 18 -40 31
-71 38 -51 45 24 8 37 -19 82 -37 100 -40z m-508 -62 c0 -8 -13 -68 -29 -133
-16 -64 -32 -129 -35 -144 -4 -16 -13 -28 -21 -28 -18 0 -20 -9 52 263 14 53
33 77 33 42z m154 -122 c-13 -43 -33 -114 -44 -158 -10 -44 -23 -91 -29 -105
l-10 -25 0 30 c-1 33 50 233 75 296 28 69 33 42 8 -38z m-186 -298 c42 -46 34
-58 -12 -17 -19 17 -51 36 -70 43 -49 18 -45 28 6 19 30 -6 52 -19 76 -45z
m-181 -6 c65 -31 143 -129 103 -129 -5 0 -10 -9 -10 -20 0 -21 -14 -27 -25
-11 -5 10 -63 41 -74 41 -3 0 14 -19 36 -42 23 -24 46 -55 52 -70 12 -33 9
-35 -16 -10 -10 10 -31 24 -48 31 l-30 13 23 -22 c12 -11 21 -28 21 -38 -1
-15 -2 -15 -6 1 -3 10 -10 16 -16 14 -6 -2 -21 5 -32 16 -27 26 -78 47 -114
47 -39 0 -47 15 -19 34 22 16 22 16 -14 16 -20 0 -48 -4 -62 -10 -47 -17 -27
1 27 25 34 15 45 24 31 24 -12 1 -25 8 -28 17 -7 19 -58 15 -106 -10 -40 -20
-38 -5 5 33 92 81 199 98 302 50z m696 -126 c14 -141 43 -174 167 -188 l65 -8
-61 -13 c-128 -26 -147 -47 -169 -184 -9 -57 -17 -106 -19 -107 -1 -2 -10 47
-19 108 -12 91 -20 116 -39 135 -22 22 -118 54 -162 54 -38 0 -10 8 62 18 40
6 80 16 88 23 27 22 42 63 56 147 7 45 15 82 19 82 3 0 9 -30 12 -67z m4937
50 c-25 -8 -53 -22 -62 -31 -10 -8 -18 -11 -18 -7 0 5 -6 1 -13 -10 -10 -12
-16 -14 -21 -7 -11 19 82 72 123 72 l36 -1 -45 -16z m-4660 -3 c0 -5 -4 -10
-10 -10 -5 0 -10 5 -10 10 0 6 5 10 10 10 6 0 10 -4 10 -10z m4775 -14 c17
-12 16 -13 -11 -20 -61 -14 -84 -28 -83 -50 0 -20 1 -21 9 -1 7 15 9 16 9 4 1
-9 -6 -22 -14 -29 -13 -10 -15 -9 -15 9 0 18 -4 20 -27 15 -34 -8 -73 -31 -73
-44 0 -5 -9 -14 -20 -20 -17 -9 -20 -8 -20 10 0 12 11 32 24 45 13 13 21 26
18 29 -3 3 2 6 11 6 9 0 20 6 24 13 24 38 132 60 168 33z m-15 -177 c0 -5 -45
-29 -55 -29 -2 0 -3 8 -2 18 0 12 9 17 29 17 15 0 28 -3 28 -6z m-5863 -75
c-3 -3 -12 -4 -19 -1 -8 3 -5 6 6 6 11 1 17 -2 13 -5z m4460 -51 c11 -53 7
-266 -6 -343 -17 -92 -65 -245 -112 -353 -116 -268 -336 -506 -621 -670 -121
-70 -179 -96 -298 -135 -271 -89 -569 -102 -831 -36 -104 26 -194 63 -154 63
11 -1 84 3 163 6 108 6 146 4 157 -5 9 -7 18 -10 22 -6 3 3 1 6 -6 6 -7 0 -10
4 -7 9 3 5 35 8 71 6 35 -1 63 1 60 5 -2 3 16 7 40 7 25 0 45 -4 45 -9 0 -4 7
-8 16 -8 8 0 13 4 10 8 -3 4 10 8 28 9 31 1 116 26 261 77 39 14 86 25 106 26
20 0 42 7 49 15 6 8 22 17 33 21 12 4 35 16 51 27 25 18 29 18 23 4 -3 -9 -4
-17 -2 -17 13 0 79 54 139 115 38 39 66 63 62 55 -5 -9 -2 -8 7 3 8 9 20 17
27 17 7 0 29 14 50 30 21 17 42 30 48 30 5 0 30 22 55 49 30 32 47 44 49 34 2
-11 8 -10 25 6 12 12 26 21 32 21 13 0 21 27 14 48 -6 14 -4 15 8 5 11 -9 18
-8 31 1 10 7 15 16 11 20 -4 4 -3 10 2 14 14 10 87 159 96 196 7 30 7 30 14 8
l8 -23 18 28 c11 15 19 35 19 43 0 8 7 28 15 44 9 16 14 35 11 41 -2 6 5 22
15 36 10 13 19 31 19 40 0 8 6 21 13 28 10 11 7 12 -13 7 -23 -6 -24 -6 -7 7
11 9 15 21 10 32 -5 14 -3 17 10 12 11 -4 17 -1 17 8 0 8 -5 15 -11 15 -5 0
-7 5 -4 10 4 6 11 8 16 5 5 -4 9 6 9 22 0 20 -3 24 -9 14 -7 -10 -9 -7 -8 12
1 14 5 23 9 21 6 -4 44 109 54 159 2 15 9 38 14 51 5 14 7 34 5 45 -7 38 14
22 22 -16z m688 16 c-54 -8 -396 -17 -389 -9 9 8 159 17 299 17 106 1 128 -1
90 -8z m-5135 -39 c0 -5 -7 -10 -16 -10 -8 0 -12 5 -9 10 3 6 10 10 16 10 5 0
9 -4 9 -10z m5290 -20 c-6 -11 -15 -18 -21 -15 -5 4 -9 -2 -10 -12 0 -10 -3
-13 -5 -7 -3 8 -19 9 -47 3 -23 -4 -43 -6 -45 -4 -3 3 116 52 131 54 4 1 3 -8
-3 -19z m-175 -30 c17 -7 16 -9 -10 -9 -40 -1 -97 -32 -112 -62 -12 -23 -13
-23 -13 -3 0 31 36 72 68 77 42 6 46 6 67 -3z m-4970 -70 c-15 -16 -43 -36
-60 -45 -37 -17 -121 -22 -95 -5 8 5 25 10 38 10 13 0 21 4 18 9 -4 5 8 12 25
16 17 4 33 13 36 21 3 8 9 11 14 8 5 -3 9 0 9 6 0 6 4 9 9 6 5 -3 12 2 16 12
5 12 9 13 12 4 3 -8 -7 -27 -22 -42z m4630 -34 c6 -3 -8 -5 -29 -5 -41 -1
-106 18 -106 30 0 6 106 -14 135 -25z m100 14 c4 -6 -11 -10 -37 -10 -31 0
-39 3 -28 10 20 13 57 13 65 0z m-3765 -20 c0 -5 -17 -10 -37 -10 -47 0 -97
-30 -123 -72 -23 -39 -27 -20 -5 23 22 41 71 69 123 69 23 0 42 -4 42 -10z
m3764 -56 c3 -8 2 -12 -4 -9 -13 8 -13 -11 0 -36 6 -10 8 -19 5 -19 -6 0 -35
63 -35 75 0 12 28 4 34 -11z m240 -17 c8 -12 5 -21 -8 -36 -38 -41 -68 -19
-39 29 19 32 30 34 47 7z m-299 -42 c13 -36 14 -49 5 -60 -9 -11 -17 -12 -31
-4 -17 9 -18 12 -4 25 8 9 15 18 15 22 0 3 -5 1 -12 -6 -7 -7 -17 -12 -22 -12
-6 0 -1 7 10 15 15 10 20 22 17 40 -8 39 3 30 22 -20z m-120 -12 c44 -21 46
-37 3 -28 -42 9 -48 13 -48 31 0 18 2 18 45 -3z m-6305 -68 c0 -8 -4 -15 -10
-15 -5 0 -10 7 -10 15 0 8 5 15 10 15 6 0 10 -7 10 -15z m6587 -16 c17 -17 4
-39 -22 -39 -31 0 -39 14 -19 34 18 19 26 20 41 5z m-5816 -22 c-13 -13 -26
-3 -16 12 3 6 11 8 17 5 6 -4 6 -10 -1 -17z m5665 -182 c7 -18 -13 -45 -33
-45 -17 0 -27 24 -19 45 7 20 45 19 52 0z m1919 -265 c-5 -8 -11 -8 -17 -2 -6
6 -7 16 -3 22 5 8 11 8 17 2 6 -6 7 -16 3 -22z m-2725 -50 c-6 -11 -16 -17
-22 -14 -7 5 -5 12 7 21 25 18 28 17 15 -7z m500 -52 c0 -41 31 -209 45 -240
18 -45 53 -62 146 -72 93 -10 100 -20 23 -35 -100 -18 -176 -63 -158 -92 4 -7
3 -9 -4 -5 -6 3 -13 -2 -16 -11 -6 -18 -35 -218 -36 -240 0 -7 -4 -13 -10 -13
-5 0 -10 17 -10 38 0 91 -35 246 -53 235 -5 -3 -7 0 -5 8 10 30 -61 65 -175
85 -21 3 -36 8 -34 11 2 2 33 8 68 13 106 17 135 34 159 96 10 29 25 94 31
144 6 49 16 90 20 90 5 0 9 -6 9 -12z m-5070 -63 c19 -22 4 -64 -25 -71 -49
-12 -77 18 -57 62 13 28 62 34 82 9z m5167 -27 c-3 -8 -6 -5 -6 6 -1 11 2 17
5 13 3 -3 4 -12 1 -19z m-811 -13 c-9 -9 -16 -13 -16 -8 0 12 22 34 28 28 2
-2 -3 -11 -12 -20z m494 -49 c0 -8 -5 -18 -11 -22 -14 -8 -33 11 -25 25 10 16
36 13 36 -3z m938 -225 c10 -6 5 -10 -16 -14 -36 -7 -97 -58 -117 -98 -8 -15
-16 -51 -17 -78 -3 -58 -11 -65 -27 -20 -22 64 -6 122 48 176 37 38 98 54 129
34z m92 -57 c25 -15 25 -15 1 -8 -16 4 -21 3 -17 -5 5 -7 -3 -11 -21 -10 -25
0 -26 1 -8 9 18 8 18 9 2 9 -10 1 -20 -6 -23 -14 -4 -9 -11 -15 -18 -14 -27 3
-37 -3 -61 -38 -37 -55 -35 -113 6 -147 42 -36 98 -35 146 1 19 15 40 38 45
52 7 17 12 21 15 12 9 -23 -50 -94 -89 -109 -110 -42 -217 95 -161 205 33 64
125 92 183 57z m-5944 -31 c-10 -10 -19 5 -10 18 6 11 8 11 12 0 2 -7 1 -15
-2 -18z m4964 7 c0 -5 -4 -10 -10 -10 -5 0 -10 5 -10 10 0 6 5 10 10 10 6 0
10 -4 10 -10z m-4827 -65 c7 -16 -8 -29 -23 -20 -10 6 -2 35 10 35 4 0 10 -7
13 -15z m-1403 -45 c0 -5 -4 -10 -10 -10 -5 0 -10 5 -10 10 0 6 5 10 10 10 6
0 10 -4 10 -10z m7166 -14 c19 -19 18 -21 -11 -24 -13 -1 -27 3 -31 10 -4 7
-3 8 4 4 7 -4 12 -1 12 8 0 20 7 20 26 2z m2584 10 c0 -3 -4 -8 -10 -11 -5 -3
-10 -1 -10 4 0 6 5 11 10 11 6 0 10 -2 10 -4z m-9031 -82 c-9 -11 -15 -12 -25
-3 -11 9 -12 15 -3 25 9 11 15 12 25 3 11 -9 12 -15 3 -25z m8771 -10 c0 -8
-5 -12 -10 -9 -6 4 -8 11 -5 16 9 14 15 11 15 -7z m-9220 -9 c0 -8 -4 -15 -9
-15 -13 0 -22 16 -14 24 11 11 23 6 23 -9z m5413 3 c7 -21 -4 -38 -23 -38 -23
0 -32 13 -24 34 7 19 40 21 47 4z m2867 2 c0 -13 -30 -13 -50 0 -11 7 -7 10
18 10 17 0 32 -4 32 -10z m-8680 -110 c0 -5 -2 -10 -4 -10 -3 0 -8 5 -11 10
-3 6 -1 10 4 10 6 0 11 -4 11 -10z m9275 -19 c-3 -6 -11 -8 -17 -5 -6 4 -5 9
3 15 16 10 23 4 14 -10z m75 -27 c0 -8 -5 -14 -11 -14 -13 0 -40 26 -33 33 10
9 44 -5 44 -19z m-4755 -34 c9 -27 -1 -40 -30 -40 -29 0 -39 13 -30 40 4 13
15 20 30 20 15 0 26 -7 30 -20z m650 0 c8 -26 -1 -40 -26 -40 -25 0 -35 25
-19 45 17 21 37 19 45 -5z m-255 -44 c0 -11 -19 -15 -25 -6 -3 5 1 10 9 10 9
0 16 -2 16 -4z m490 -17 c0 -25 -33 -22 -38 4 -2 12 3 17 17 17 15 0 21 -6 21
-21z m428 -136 l37 -15 -34 -18 c-19 -9 -42 -32 -51 -50 -16 -32 -18 -33 -24
-12 -4 12 -12 22 -17 22 -5 0 -9 7 -9 15 0 8 -9 20 -20 27 -23 15 -26 28 -7
28 20 0 57 55 58 87 1 23 4 19 16 -20 12 -41 21 -51 51 -64z m422 82 c0 -8 -6
-15 -14 -15 -17 0 -28 14 -19 24 12 12 33 6 33 -9z m-1950 -65 c121 -35 410
-81 532 -84 9 0 14 -4 12 -8 -15 -24 -253 -1 -430 42 -146 36 -211 58 -174 59
14 1 41 -4 60 -9z m2666 -15 c17 -13 15 -13 -19 -4 -21 6 -52 7 -68 4 -35 -8
-95 -64 -111 -103 -6 -17 -12 -22 -15 -14 -9 23 29 91 61 112 38 24 123 27
152 5z m694 -41 c0 -15 -35 -28 -50 -19 -16 10 -12 33 7 44 20 11 43 -3 43
-25z m-621 -23 c26 -50 34 -97 22 -118 -8 -15 -10 -10 -11 24 0 51 -14 90 -43
121 -18 19 -18 22 -4 16 10 -3 26 -23 36 -43z m-66 -21 c21 -24 27 -40 26 -73
l-1 -42 -8 38 c-4 21 -16 47 -27 58 -17 17 -25 19 -62 10 -23 -5 -51 -17 -62
-27 -20 -18 -26 -72 -9 -92 5 -7 3 -6 -6 2 -10 8 -19 36 -21 63 -5 46 -3 51
28 77 44 37 101 32 142 -14z m-2949 -4 c32 -2 280 -82 329 -107 10 -6 17 -5
17 0 0 6 12 6 31 1 48 -14 233 -40 359 -49 63 -6 133 -14 155 -19 34 -8 26
-10 -61 -11 -171 -2 -401 28 -507 65 -22 8 -52 16 -66 19 -51 9 -190 62 -183
70 4 5 -1 5 -10 2 -10 -4 -18 -2 -18 4 0 6 -4 8 -10 4 -10 -6 -80 20 -80 30 0
3 5 3 11 -1 7 -4 21 -7 33 -8z m366 -46 c0 -5 -4 -10 -10 -10 -5 0 -10 5 -10
10 0 6 5 10 10 10 6 0 10 -4 10 -10z m2558 -46 c-3 -14 -5 -12 -10 9 -3 19 -2
25 4 19 6 -6 8 -18 6 -28z m12 -66 c-12 -10 -30 -18 -39 -17 -13 0 -14 2 -1 6
8 3 24 17 35 30 12 15 21 20 24 12 2 -7 -6 -21 -19 -31z m-75 -8 c3 -6 -1 -7
-9 -4 -18 7 -21 14 -7 14 6 0 13 -4 16 -10z m1877 -285 c3 -13 1 -22 -3 -19
-9 5 -13 44 -5 44 2 0 6 -11 8 -25z m-6342 -125 l0 -120 -210 0 -210 0 0 -130
0 -131 185 3 185 3 0 -106 0 -106 -31 -7 c-17 -3 -101 -6 -185 -6 l-154 0 0
-251 c0 -234 1 -250 18 -245 31 8 412 59 416 55 2 -2 5 -51 7 -108 l4 -104
-255 -52 c-140 -29 -304 -64 -364 -79 -60 -14 -111 -24 -114 -21 -3 3 3 31 14
63 18 54 19 96 21 762 2 388 3 705 3 705 0 0 151 -1 335 -3 l335 -3 0 -119z
m4523 95 l-17 -35 -2109 2 -2109 3 -13 32 -14 33 2139 0 2140 0 -17 -35z
m1787 25 c0 -5 -5 -10 -11 -10 -5 0 -7 5 -4 10 3 6 8 10 11 10 2 0 4 -4 4 -10z
m187 4 c-3 -3 -12 -4 -19 -1 -8 3 -5 6 6 6 11 1 17 -2 13 -5z m-1124 -18 c68
-25 115 -65 144 -125 28 -56 28 -58 28 -256 -1 -139 -5 -215 -14 -249 -18 -62
-72 -120 -128 -136 -24 -7 -43 -16 -43 -20 0 -15 222 -664 236 -692 9 -17 14
-32 11 -34 -2 -2 -50 7 -106 20 -56 14 -121 28 -145 31 l-44 7 -35 106 c-34
103 -114 357 -155 492 l-20 65 -61 3 -61 3 0 -296 c0 -229 -3 -295 -12 -295
-7 0 -61 7 -120 17 l-108 17 0 678 0 678 298 0 c224 -1 306 -4 335 -14z m2097
-140 c30 -2 53 -7 50 -12 -3 -5 -12 -8 -20 -7 -8 1 -39 3 -67 4 -29 1 -53 5
-53 8 0 3 -16 6 -37 6 -20 0 -38 5 -40 11 -2 8 13 8 54 2 32 -5 83 -11 113
-12z m-9730 -6 c0 -5 -4 -10 -9 -10 -6 0 -13 5 -16 10 -3 6 1 10 9 10 9 0 16
-4 16 -10z m2521 -100 l56 0 26 -57 c14 -32 44 -98 67 -147 l41 -89 64 144 64
144 96 3 c52 1 95 1 95 -2 0 -3 -16 -40 -36 -83 -114 -248 -175 -398 -170
-419 7 -28 153 -343 200 -430 l33 -63 -26 -5 c-14 -3 -61 -8 -103 -11 l-77 -7
-24 49 c-14 26 -46 99 -73 162 l-48 115 -31 -70 c-17 -38 -53 -120 -80 -182
-27 -63 -53 -115 -59 -117 -6 -1 -53 -9 -103 -17 -91 -13 -110 -9 -84 17 5 6
19 34 30 63 12 29 66 154 121 278 55 123 100 229 100 234 0 6 -44 111 -99 233
-54 122 -102 233 -106 246 -7 23 -6 24 31 18 22 -4 64 -7 95 -7z m2489 -11
c51 -16 105 -61 133 -112 21 -40 22 -52 22 -317 0 -239 -2 -281 -18 -321 -20
-53 -54 -88 -117 -121 -40 -20 -59 -23 -160 -23 -106 0 -119 2 -173 29 -71 34
-111 86 -127 163 -8 37 -11 140 -8 302 4 263 7 279 62 339 64 71 252 101 386
61z m892 -24 c25 -18 53 -49 66 -75 22 -42 23 -55 20 -195 -3 -172 -12 -196
-79 -223 -37 -14 -38 -15 -24 -41 7 -15 38 -93 69 -174 31 -82 66 -167 77
-189 l21 -41 -49 6 c-26 4 -76 9 -109 13 l-62 6 -57 162 c-32 88 -62 176 -68
194 -11 31 -13 32 -63 32 l-52 0 -6 -47 c-3 -27 -4 -110 -2 -187 l3 -138 -93
4 c-51 2 -95 6 -98 9 -3 3 -7 212 -8 464 l-3 460 237 -5 236 -5 44 -30z
m-2251 12 c29 -16 54 -40 74 -72 30 -48 30 -49 30 -204 0 -143 -2 -160 -22
-198 -15 -28 -39 -52 -70 -70 -45 -26 -57 -28 -180 -31 l-133 -4 0 -184 0
-183 -32 -5 c-18 -3 -63 -8 -100 -11 l-68 -7 0 496 0 496 228 0 c220 0 231 -1
273 -23z m779 -27 c0 -36 -9 -67 -30 -109 -35 -70 -124 -290 -225 -559 -41
-107 -75 -195 -77 -197 -2 -1 -47 -5 -101 -8 -73 -4 -97 -2 -94 6 19 46 243
570 276 645 22 51 41 97 41 102 0 6 -70 10 -175 10 l-175 0 0 80 0 80 280 0
280 0 0 -50z m2340 -35 l0 -85 -175 0 -175 0 0 -54 c0 -29 3 -74 6 -100 l7
-46 123 0 124 0 0 -80 0 -79 -127 -3 -128 -3 0 -142 c0 -78 3 -144 6 -147 4
-4 60 -13 125 -21 66 -7 142 -17 170 -20 l51 -7 6 -77 c3 -42 9 -84 13 -95 7
-17 3 -18 -52 -12 -32 4 -113 16 -179 26 -66 10 -171 25 -232 32 l-113 12 0
477 c0 263 -3 484 -6 493 -6 14 23 16 275 16 l281 0 0 -85z m2310 50 c0 -8 -4
-15 -10 -15 -5 0 -7 7 -4 15 4 8 8 15 10 15 2 0 4 -7 4 -15z m-784 -2 c-7 -7
-87 -5 -95 3 -2 2 20 4 49 4 29 0 50 -3 46 -7z m89 -3 c-3 -5 -16 -10 -28 -9
-21 0 -21 1 -2 9 28 12 37 12 30 0z m160 0 c-3 -5 -13 -10 -21 -10 -8 0 -12 5
-9 10 3 6 13 10 21 10 8 0 12 -4 9 -10z m145 2 c0 -8 -100 -6 -108 3 -3 3 20
5 51 5 32 0 57 -3 57 -8z m-263 -8 c-3 -3 -12 -4 -19 -1 -8 3 -5 6 6 6 11 1
17 -2 13 -5z m536 -11 c-7 -2 -19 -2 -25 0 -7 3 -2 5 12 5 14 0 19 -2 13 -5z
m360 0 c-7 -2 -19 -2 -25 0 -7 3 -2 5 12 5 14 0 19 -2 13 -5z m-8437 -24 c3
-6 15 -8 27 -5 11 3 16 1 11 -4 -8 -8 -68 -14 -104 -11 -8 1 -1 8 15 16 38 17
42 17 51 4z m137 4 c-7 -2 -21 -2 -30 0 -10 3 -4 5 12 5 17 0 24 -2 18 -5z
m-636 -9 c-3 -3 -12 -4 -19 -1 -8 3 -5 6 6 6 11 1 17 -2 13 -5z m145 -3 c11 0
15 -6 12 -16 -4 -10 0 -15 12 -16 18 0 17 -1 -1 -9 -16 -7 -16 -9 -4 -9 9 -1
19 -8 23 -16 6 -17 -9 -21 -19 -5 -3 6 -13 10 -21 10 -8 0 -12 -4 -9 -10 3 -5
-7 -12 -22 -16 -15 -3 -34 -8 -42 -10 -11 -4 -11 -1 -2 10 10 12 5 15 -28 21
-22 4 -45 4 -50 1 -13 -9 -141 -9 -173 -1 -16 4 -25 11 -22 16 3 5 9 7 14 4 4
-3 6 4 3 15 -6 24 13 26 53 5 18 -9 23 -15 12 -15 -9 0 -20 -5 -24 -11 -5 -9
1 -10 22 -4 16 5 41 8 57 7 18 -1 27 4 27 13 0 9 10 15 26 15 22 0 25 -2 14
-15 -7 -8 -9 -15 -4 -15 15 0 30 14 42 36 11 21 21 22 104 15z m233 -1 c-3 -5
-13 -10 -21 -10 -8 0 -14 5 -14 10 0 6 9 10 21 10 11 0 17 -4 14 -10z m-481
-9 c4 -5 -3 -7 -14 -4 -23 6 -26 13 -6 13 8 0 17 -4 20 -9z m46 -11 c0 -5 -5
-10 -11 -10 -5 0 -7 5 -4 10 3 6 8 10 11 10 2 0 4 -4 4 -10z m377 4 c-3 -3
-12 -4 -19 -1 -8 3 -5 6 6 6 11 1 17 -2 13 -5z m-538 -41 c2 -2 -12 -3 -32 -3
-25 0 -37 5 -37 14 0 22 23 25 45 7 11 -9 22 -17 24 -18z m566 -11 c18 -10 16
-11 -17 -12 -28 0 -36 4 -32 14 6 16 20 15 49 -2z m85 -2 c0 -11 -4 -20 -9
-20 -5 0 -7 9 -4 20 3 11 7 20 9 20 2 0 4 -9 4 -20z m-33 -12 c-3 -8 -6 -5 -6
6 -1 11 2 17 5 13 3 -3 4 -12 1 -19z m163 1 c-25 -4 -61 -7 -80 -7 -32 1 -31
2 10 8 25 4 61 7 80 7 31 0 30 0 -10 -8z m-520 -9 c-8 -5 -22 -9 -30 -9 -10 0
-8 3 5 9 27 12 43 12 25 0z m820 2 c0 -5 -7 -17 -15 -28 -14 -18 -14 -17 -4 9
12 27 19 34 19 19z m-170 -17 c-14 -17 -30 -20 -30 -6 0 5 8 12 18 14 9 3 19
5 21 6 2 0 -2 -6 -9 -14z m-230 -11 c0 -2 -7 -4 -15 -4 -8 0 -15 4 -15 10 0 5
7 7 15 4 8 -4 15 -8 15 -10z m94 8 c3 -5 -1 -9 -9 -9 -8 0 -12 4 -9 9 3 4 7 8
9 8 2 0 6 -4 9 -8z m251 -2 c-3 -5 -12 -7 -20 -3 -21 7 -19 13 6 13 11 0 18
-4 14 -10z m-945 -10 c0 -5 -10 -10 -22 -10 -19 0 -20 2 -8 10 19 13 30 13 30
0z m456 -5 c-36 -19 -47 -19 -22 0 11 8 27 15 35 15 9 0 3 -7 -13 -15z m664
-1 c0 -2 -16 -4 -36 -4 -19 0 -33 4 -30 8 5 8 66 4 66 -4z m-920 -9 c0 -8 -2
-15 -4 -15 -2 0 -6 7 -10 15 -3 8 -1 15 4 15 6 0 10 -7 10 -15z m170 11 c0 -3
-4 -8 -10 -11 -5 -3 -10 -1 -10 4 0 6 5 11 10 11 6 0 10 -2 10 -4z m37 -2 c-3
-3 -12 -4 -19 -1 -8 3 -5 6 6 6 11 1 17 -2 13 -5z m620 0 c-3 -3 -12 -4 -19
-1 -8 3 -5 6 6 6 11 1 17 -2 13 -5z m-481 -29 c-22 -17 -56 -20 -56 -6 0 12
19 19 50 20 24 0 24 0 6 -14z m112 3 c-6 -18 -28 -21 -28 -4 0 9 7 16 16 16 9
0 14 -5 12 -12z m182 -8 c13 -8 13 -10 -2 -10 -9 0 -20 5 -23 10 -8 13 5 13
25 0z m80 0 c0 -5 -15 -10 -32 -9 -31 1 -32 1 -8 9 35 11 40 11 40 0z m30 0
c0 -5 -2 -10 -4 -10 -3 0 -8 5 -11 10 -3 6 -1 10 4 10 6 0 11 -4 11 -10z m80
6 c0 -8 -61 -12 -66 -4 -3 4 11 8 30 8 20 0 36 -2 36 -4z m35 -6 c3 -5 -1 -10
-10 -10 -9 0 -13 5 -10 10 3 6 8 10 10 10 2 0 7 -4 10 -10z m-960 -10 c3 -5 1
-10 -4 -10 -6 0 -11 5 -11 10 0 6 2 10 4 10 3 0 8 -4 11 -10z m52 -15 c-15
-16 -22 -11 -13 10 3 9 10 13 16 10 6 -4 5 -11 -3 -20z m-77 5 c0 -6 -3 -10
-7 -10 -5 0 -17 -3 -29 -6 -13 -3 -21 -1 -21 8 0 7 13 14 29 15 15 1 28 -2 28
-7z m430 -20 c13 -8 13 -10 -2 -10 -9 0 -20 5 -23 10 -8 13 5 13 25 0z m437 4
c-3 -3 -12 -4 -19 -1 -8 3 -5 6 6 6 11 1 17 -2 13 -5z m-282 -14 c-6 -10 -102
-6 -113 4 -3 3 23 6 57 6 38 0 60 -4 56 -10z m-720 -19 c-3 -6 6 -7 22 -3 16
4 53 5 83 1 30 -3 51 -6 47 -7 -5 -1 -2 -9 7 -17 18 -18 66 -20 67 -2 0 9 2 9
6 -1 2 -6 9 -10 13 -7 5 3 11 1 14 -3 11 -19 -167 -47 -298 -48 -187 -1 -269
25 -130 41 27 4 50 10 52 14 1 4 18 6 37 5 27 -3 35 1 35 14 0 14 2 15 10 2 8
-12 10 -12 16 3 3 9 10 17 16 17 5 0 7 -4 3 -9z m302 -47 c-3 -3 -12 -4 -19
-1 -8 3 -5 6 6 6 11 1 17 -2 13 -5z m569 -42 c17 -10 -5 -28 -33 -26 -37 2
-39 4 -19 19 22 17 35 18 52 7z m-276 -232 c0 -5 -4 -10 -10 -10 -5 0 -10 5
-10 10 0 6 5 10 10 10 6 0 10 -4 10 -10z m-115 -20 c3 -5 -1 -10 -10 -10 -9 0
-13 5 -10 10 3 6 8 10 10 10 2 0 7 -4 10 -10z m635 -29 c0 -5 16 -12 35 -15
l35 -7 0 -62 c0 -34 -3 -126 -7 -204 l-6 -142 -33 -11 c-17 -6 -43 -8 -55 -5
-13 3 -100 7 -192 9 l-168 4 -92 -45 c-62 -30 -122 -51 -191 -64 -56 -11 -111
-27 -123 -34 -20 -13 -22 -12 -32 15 -5 17 -17 30 -26 30 -15 0 -47 30 -43 40
3 7 -73 80 -84 80 -5 0 -32 23 -61 51 -42 42 -55 49 -76 44 -25 -6 -25 -6 -6
9 11 8 26 16 33 16 6 0 12 7 12 16 0 10 -6 14 -15 10 -19 -7 -20 8 -1 23 9 8
13 26 11 47 -2 24 0 32 8 27 7 -5 22 -8 34 -8 19 -1 20 2 11 20 -10 18 -10 19
7 5 14 -12 19 -12 23 -2 3 10 7 10 18 1 10 -8 14 -8 14 -1 0 6 7 9 15 6 8 -4
15 -1 15 6 0 8 9 10 25 6 18 -5 27 -2 31 9 5 12 9 13 20 4 9 -7 14 -8 14 -1 0
5 19 10 43 10 36 0 53 2 87 12 17 5 190 1 199 -5 6 -3 11 -1 11 6 0 10 3 10
12 1 16 -16 31 -15 25 2 -7 16 14 16 35 -1 8 -7 27 -11 43 -9 41 4 92 -25 79
-46 -3 -4 2 -8 10 -8 9 0 16 7 16 15 0 8 7 15 15 15 8 0 15 -7 15 -15 0 -21
142 -22 159 -1 15 17 5 44 -20 51 -25 8 -24 22 1 37 25 16 25 27 3 45 -16 13
-16 14 9 9 14 -3 37 -2 50 3 30 13 58 13 58 2z m-853 -37 c-3 -3 -12 -4 -19
-1 -8 3 -5 6 6 6 11 1 17 -2 13 -5z m-92 -24 c17 -7 7 -14 -58 -44 -43 -20
-82 -36 -88 -36 -5 0 -9 -6 -9 -12 0 -9 -3 -8 -9 2 -6 8 -7 18 -4 23 3 5 -4 3
-16 -5 -12 -7 -17 -14 -12 -16 5 -2 2 -16 -7 -33 -18 -31 -34 -34 -38 -6 -1
10 4 17 14 17 15 0 15 2 2 10 -10 6 -20 4 -33 -8 -18 -16 -19 -16 -16 3 2 11
-2 20 -8 20 -7 0 -12 -4 -10 -8 4 -15 -65 -39 -77 -27 -7 7 -2 10 15 10 14 0
30 9 37 21 12 18 20 21 55 16 26 -4 51 0 69 9 16 8 33 12 38 9 6 -3 10 -2 10
4 0 6 7 7 17 4 9 -4 14 -2 11 3 -4 5 5 10 19 11 14 0 29 6 33 13 4 6 10 11 14
11 20 -3 26 0 21 9 -7 12 2 12 30 0z m-285 -134 c0 -9 -30 -14 -35 -6 -4 6 3
10 14 10 12 0 21 -2 21 -4z m-93 -22 c-3 -3 -12 -4 -19 -1 -8 3 -5 6 6 6 11 1
17 -2 13 -5z m-187 -80 c0 -8 -19 -13 -24 -6 -3 5 1 9 9 9 8 0 15 -2 15 -3z
m-72 -20 c-4 -3 -9 -4 -12 -2 -3 2 -12 -6 -20 -17 -12 -16 -15 -17 -16 -4 0
21 9 29 33 29 11 0 18 -3 15 -6z m4993 -89 c21 -44 22 -45 67 -45 l47 0 -39
-34 -39 -33 16 -46 15 -46 -47 26 -48 27 -43 -32 c-24 -17 -45 -30 -48 -28 -2
2 4 18 12 35 24 45 20 71 -16 101 l-32 27 47 7 c44 7 49 11 63 47 9 21 18 39
20 39 2 0 13 -20 25 -45z m-861 -85 l25 -8 -27 -1 c-14 -1 -32 -3 -40 -4 -7
-2 -9 -2 -4 1 4 2 2 8 -5 13 -18 11 15 10 51 -1z m129 -6 c8 -7 -54 -2 -79 6
-17 6 -9 7 25 3 28 -3 52 -7 54 -9z m114 -1 c-13 -2 -33 -2 -45 0 -13 2 -3 4
22 4 25 0 35 -2 23 -4z m1715 -20 c-10 -2 -28 -2 -40 0 -13 2 -5 4 17 4 22 1
32 -1 23 -4z m-2275 -10 c-13 -2 -33 -2 -45 0 -13 2 -3 4 22 4 25 0 35 -2 23
-4z m2334 1 c-3 -3 -12 -4 -19 -1 -8 3 -5 6 6 6 11 1 17 -2 13 -5z m-2434 -11
c-7 -2 -21 -2 -30 0 -10 3 -4 5 12 5 17 0 24 -2 18 -5z m-2968 -33 c3 -5 1
-10 -4 -10 -6 0 -11 5 -11 10 0 6 2 10 4 10 3 0 8 -4 11 -10z m-168 -6 c-3 -3
-12 -4 -19 -1 -8 3 -5 6 6 6 11 1 17 -2 13 -5z m4309 -264 c97 -16 153 -12
242 19 72 26 82 28 82 13 0 -19 -49 -56 -100 -74 -19 -7 -80 -13 -135 -13 -93
0 -105 2 -170 33 -69 33 -109 62 -125 93 -6 11 17 3 69 -23 42 -21 104 -43
137 -48z m-2156 16 c0 -2 -7 -9 -15 -16 -12 -10 -15 -10 -15 4 0 9 7 16 15 16
8 0 15 -2 15 -4z m620 -77 c0 -4 -7 -6 -15 -3 -8 4 -15 10 -15 15 0 4 7 6 15
3 8 -4 15 -10 15 -15z m117 -75 c31 -2 62 -9 70 -15 7 -6 20 -9 28 -5 17 6 18
4 9 -18 -3 -9 -15 -16 -25 -16 -11 0 -22 -6 -25 -14 -4 -10 -15 -11 -47 -5
-23 4 -45 5 -49 3 -10 -6 -43 12 -43 23 0 4 -3 7 -7 6 -5 -2 -8 1 -8 5 0 5 3
12 8 16 4 4 8 12 8 17 3 19 4 20 14 14 5 -3 35 -8 67 -11z m248 -64 c3 -5 1
-10 -4 -10 -6 0 -11 5 -11 10 0 6 2 10 4 10 3 0 8 -4 11 -10z m274 -125 c1 13
4 16 12 8 13 -13 -7 -97 -21 -88 -6 4 -10 12 -10 20 0 8 -7 18 -16 23 -15 8
-15 11 2 29 16 16 20 17 26 3 5 -12 7 -11 7 5z m536 -175 c-3 -5 -12 -10 -18
-10 -7 0 -6 4 3 10 19 12 23 12 15 0z m-2175 -198 c0 -15 -11 -21 -27 -15 -12
5 -12 7 -1 14 17 11 28 11 28 1z"/>
        <path d="M2133 7548 c1 -15 6 -23 11 -18 4 4 4 16 -2 26 -9 16 -10 14 -9 -8z"/>
        <path d="M2077 7403 c-4 -3 -7 -11 -7 -17 0 -6 5 -5 12 2 6 6 9 14 7 17 -3 3
-9 2 -12 -2z"/>
        <path d="M2016 7358 c3 -5 10 -6 15 -3 13 9 11 12 -6 12 -8 0 -12 -4 -9 -9z"/>
        <path d="M6505 8750 c3 -5 13 -10 21 -10 8 0 12 5 9 10 -3 6 -13 10 -21 10 -8
0 -12 -4 -9 -10z"/>
        <path d="M4950 8784 c81 -7 408 -8 403 -1 -2 4 -102 6 -221 5 -119 -1 -201 -3
-182 -4z"/>
        <path d="M5638 8753 c7 -3 16 -2 19 1 4 3 -2 6 -13 5 -11 0 -14 -3 -6 -6z"/>
        <path d="M5730 8737 c29 -12 32 -15 15 -19 -14 -4 -15 -6 -4 -7 9 0 22 6 29
14 10 12 9 15 -6 15 -11 0 -30 3 -44 5 -15 3 -11 0 10 -8z"/>
        <path d="M7065 8701 c-3 -5 -1 -12 5 -16 5 -3 10 1 10 9 0 18 -6 21 -15 7z"/>
        <path d="M5756 8302 c-2 -4 7 -9 21 -10 42 -3 40 -12 -3 -13 l-39 -1 48 -9
c29 -6 60 -6 80 0 29 8 30 9 7 10 -15 1 -30 5 -35 10 -14 12 -73 22 -79 13z"/>
        <path d="M5075 8101 c-73 -45 -90 -101 -56 -191 20 -53 112 -187 126 -183 11
4 93 120 116 165 30 57 31 127 3 165 -43 59 -131 80 -189 44z m88 -196 c9 -8
13 -24 10 -34 -11 -41 -83 -38 -83 3 0 42 44 61 73 31z"/>
        <path d="M5261 7795 c1 -19 18 -51 18 -35 0 8 -4 22 -9 30 -5 8 -9 11 -9 5z"/>
        <path d="M5219 7773 c-13 -16 -12 -17 4 -4 9 7 17 15 17 17 0 8 -8 3 -21 -13z"/>
        <path d="M5210 7740 c0 -5 5 -10 10 -10 6 0 10 5 10 10 0 6 -4 10 -10 10 -5 0
-10 -4 -10 -10z"/>
        <path d="M5095 7700 c-3 -5 1 -10 9 -10 8 0 18 5 21 10 3 6 -1 10 -9 10 -8 0
-18 -4 -21 -10z"/>
        <path d="M7249 7075 c-165 -33 -420 -131 -671 -258 -112 -57 -216 -111 -232
-122 -61 -40 -1 -24 145 40 184 81 201 87 359 131 86 24 156 37 226 41 101 6
102 6 119 -20 22 -35 9 -76 -53 -160 -55 -75 -299 -320 -437 -439 -170 -147
-657 -521 -845 -651 -173 -118 -591 -395 -710 -469 -127 -80 -511 -307 -612
-363 -40 -22 -111 -61 -158 -87 -47 -27 -116 -64 -155 -84 -38 -20 -81 -44
-95 -54 -151 -107 -1135 -579 -1158 -556 -3 3 -15 0 -26 -7 -23 -15 -125 -47
-246 -78 -99 -26 -276 -35 -310 -17 -71 38 -12 157 212 434 49 59 85 110 82
113 -3 3 -12 -3 -20 -14 -8 -10 -61 -67 -118 -125 -120 -123 -245 -280 -283
-354 -35 -68 -37 -131 -4 -157 19 -15 39 -19 110 -19 276 0 564 95 1126 371
370 182 1257 696 1770 1027 116 75 259 169 319 210 60 42 115 75 122 75 7 0
12 3 10 6 -6 10 222 166 236 163 7 -2 10 0 6 4 -5 4 13 22 40 40 151 106 344
250 436 327 44 37 145 119 224 183 423 343 753 692 769 813 9 68 -40 84 -178
56z m-399 -175 c-8 -5 -19 -10 -25 -10 -5 0 -3 5 5 10 8 5 20 10 25 10 6 0 3
-5 -5 -10z m-360 -814 c0 -2 -8 -10 -17 -17 -16 -13 -17 -12 -4 4 13 16 21 21
21 13z m-40 -30 c0 -2 -8 -10 -17 -17 -16 -13 -17 -12 -4 4 13 16 21 21 21 13z"/>
        <path d="M6950 7031 c-8 -5 -31 -12 -50 -16 -33 -7 -198 -80 -285 -126 -22
-11 -87 -45 -145 -75 -58 -30 -105 -60 -105 -65 0 -6 -11 -17 -25 -24 -57 -32
-4 -12 79 30 49 25 92 45 96 45 3 0 70 34 148 76 214 116 251 134 268 134 9 0
32 7 50 15 31 13 32 14 9 14 -14 0 -32 -3 -40 -8z m-555 -271 c-3 -5 -12 -10
-18 -10 -7 0 -6 4 3 10 19 12 23 12 15 0z"/>
        <path d="M5529 6933 c0 -11 -3 -13 -6 -5 -7 17 -33 15 -33 -4 0 -11 -8 -15
-27 -14 -50 4 -63 0 -80 -20 -11 -13 -24 -18 -39 -14 -12 3 -25 0 -30 -7 -5
-9 -2 -10 11 -5 15 5 16 4 6 -8 -9 -11 -6 -18 15 -35 31 -24 28 -31 -12 -35
-16 -2 -36 -5 -44 -6 -11 -1 -9 -4 5 -10 18 -8 18 -9 -5 -10 -24 -2 -24 -2 5
-11 17 -5 38 -7 47 -5 9 2 19 -2 22 -9 3 -9 -10 -11 -56 -8 -49 4 -59 3 -52
-8 6 -12 5 -12 -8 -1 -8 7 -24 9 -33 5 -13 -4 -16 -3 -11 5 4 7 2 12 -3 12 -6
0 -11 -11 -11 -25 0 -22 -3 -24 -17 -16 -10 5 -26 5 -39 1 -12 -5 -24 -7 -27
-4 -2 2 -10 -3 -18 -12 -11 -14 -10 -15 6 -12 10 1 20 -3 22 -9 4 -12 -10 -17
-44 -16 -6 0 -9 -5 -7 -11 3 -7 18 -12 34 -12 35 1 45 -18 13 -22 -13 -2 -23
-8 -23 -14 0 -5 6 -8 13 -5 8 3 20 1 28 -4 10 -6 7 -9 -13 -9 -15 0 -29 -4
-33 -10 -3 -5 -12 -7 -20 -3 -11 4 -13 1 -9 -11 3 -9 1 -16 -5 -16 -19 0 -12
29 10 40 11 7 18 14 15 17 -3 3 -12 1 -19 -6 -8 -6 -23 -8 -33 -4 -16 6 -17 4
-7 -8 8 -9 9 -20 3 -29 -8 -12 -10 -11 -10 5 -1 18 -2 18 -10 -2 -5 -13 -15
-23 -21 -23 -7 0 -21 -7 -31 -17 -11 -9 -18 -11 -18 -5 0 7 -4 12 -10 12 -6 0
-6 -10 1 -27 11 -29 5 -38 -31 -47 -23 -6 -23 -6 3 9 16 9 27 19 24 21 -7 7
-57 -7 -57 -16 0 -5 -9 -6 -20 -3 -11 3 -20 0 -20 -6 0 -6 -12 -11 -27 -11
-30 -1 -89 -29 -63 -30 8 0 22 -5 30 -10 13 -9 13 -11 0 -20 -8 -5 -19 -10
-25 -10 -5 0 -4 4 4 9 9 6 2 10 -22 13 -20 2 -34 1 -32 -3 5 -7 -65 -32 -80
-29 -22 5 -29 -1 -15 -11 12 -8 10 -9 -10 -7 -17 2 -28 -4 -36 -20 -12 -25
-54 -59 -54 -45 0 5 5 14 12 21 9 9 8 12 -4 12 -9 0 -19 -11 -22 -25 -4 -14
-12 -25 -19 -25 -14 0 -51 -39 -44 -47 3 -2 15 1 27 7 12 6 25 8 28 4 4 -4 1
-9 -5 -11 -7 -3 -13 -9 -13 -15 0 -6 6 -8 14 -5 23 9 15 -33 -12 -73 -24 -34
-24 -34 -20 -7 4 21 1 27 -13 27 -11 0 -19 -6 -19 -13 0 -18 -80 -93 -107
-102 -13 -3 -23 -10 -23 -15 0 -5 -9 -14 -21 -21 -19 -10 -20 -9 -15 13 l7 23
-18 -23 c-10 -13 -28 -35 -40 -49 -22 -24 -23 -25 -23 -5 0 11 6 22 13 25 7 2
8 8 3 13 -5 5 -11 4 -13 -3 -3 -7 -10 -13 -16 -13 -7 0 -18 -9 -25 -21 -7 -11
-21 -19 -30 -18 -9 2 -27 -2 -39 -9 -44 -24 -21 3 47 58 38 30 69 58 70 63 0
15 -22 6 -46 -18 -13 -14 -28 -24 -33 -22 -13 3 -98 -87 -106 -113 -5 -15 -4
-20 4 -16 7 5 9 1 5 -8 -3 -9 -10 -14 -14 -11 -8 5 -25 -42 -21 -59 1 -4 -6
-20 -15 -33 -13 -20 -13 -27 -3 -33 10 -7 10 -12 -1 -25 -13 -16 -15 -16 -21
2 -4 10 -5 -3 -2 -30 5 -43 4 -47 -12 -40 -14 5 -17 3 -12 -10 4 -12 1 -17
-10 -17 -9 0 -13 -3 -10 -6 3 -4 -3 -18 -13 -32 -25 -30 -28 -81 -5 -62 8 7
12 16 9 21 -3 5 2 9 10 9 21 0 20 -9 -4 -35 -29 -30 -122 -215 -109 -215 7 0
9 -12 5 -35 -5 -25 -3 -35 6 -35 10 0 10 -2 -1 -9 -9 -6 -10 -11 -2 -15 5 -4
10 -31 10 -60 -1 -34 7 -70 21 -100 36 -79 16 -76 -25 4 -20 41 -39 77 -41 79
-9 10 -220 -172 -367 -317 -116 -114 -193 -206 -222 -261 -19 -37 -28 -134
-11 -124 5 4 7 0 3 -9 -9 -24 116 -32 223 -14 47 8 88 12 92 10 4 -2 9 0 13 6
3 5 13 10 21 10 28 0 330 118 499 195 317 145 573 281 1043 556 118 69 406
249 587 367 536 349 1168 859 1374 1108 53 64 81 107 92 143 l16 52 -28 15
c-55 28 -180 12 -359 -48 -95 -31 -338 -133 -353 -147 -4 -4 10 -32 33 -62 42
-56 48 -73 29 -85 -8 -4 -9 1 -4 17 4 13 4 21 0 17 -8 -7 -58 29 -119 84 -20
18 -37 26 -51 22 -15 -4 -34 8 -70 42 -72 68 -92 79 -110 64 -9 -7 -15 -8 -15
-2 0 5 -8 12 -17 16 -10 3 -40 22 -67 41 -27 19 -53 32 -58 29 -4 -3 -8 2 -8
10 0 9 -5 16 -11 16 -5 0 -8 -4 -4 -9 3 -5 1 -12 -4 -15 -5 -4 -12 -2 -16 3
-3 6 -12 8 -19 5 -8 -3 -16 4 -20 18 -4 14 -9 19 -13 12 -11 -15 -79 -11 -75
6 2 8 -4 11 -18 7 -11 -3 -23 -1 -26 4 -3 5 -9 7 -14 4 -5 -3 -23 4 -39 16
-16 12 -34 18 -40 15 -7 -5 -9 -1 -5 8 5 13 -1 16 -30 16 -27 0 -36 -4 -37
-17z m44 -20 c-7 -2 -19 -2 -25 0 -7 3 -2 5 12 5 14 0 19 -2 13 -5z m377 -144
c0 -6 -4 -7 -10 -4 -5 3 -10 11 -10 16 0 6 5 7 10 4 6 -3 10 -11 10 -16z
m-611 -65 c2 -2 -10 -4 -27 -4 -18 0 -32 5 -32 10 0 9 47 4 59 -6z m-149 -28
c0 -11 -19 -15 -25 -6 -3 5 1 10 9 10 9 0 16 -2 16 -4z m105 -55 c-6 -4 -35
-5 -65 -1 l-55 7 65 2 c36 0 60 -3 55 -8z m-300 -161 c-3 -5 -11 -10 -16 -10
-6 0 -7 5 -4 10 3 6 11 10 16 10 6 0 7 -4 4 -10z m-113 -140 c12 0 37 -30 38
-44 0 -5 -7 -3 -15 4 -10 8 -15 9 -15 1 0 -7 -7 -7 -25 1 -20 9 -28 8 -44 -6
-10 -9 -25 -14 -35 -10 -9 3 -16 1 -16 -5 0 -6 -8 -11 -17 -11 -13 0 -14 3 -6
11 6 6 9 18 6 26 -5 12 0 14 26 8 17 -4 31 -3 30 2 -4 25 3 35 21 30 11 -3 23
0 27 6 5 8 8 8 11 -1 2 -7 8 -12 14 -12z m-95 -6 c-3 -3 -12 -4 -19 -1 -8 3
-5 6 6 6 11 1 17 -2 13 -5z m-137 -49 c0 -7 -14 -9 -35 -7 -19 2 -33 7 -31 11
7 11 66 7 66 -4z m68 1 c-13 -14 -28 -12 -28 5 0 5 9 9 20 9 17 0 19 -2 8 -14z
m-153 -7 c9 -14 1 -21 -29 -23 -14 0 -26 -7 -26 -13 0 -7 -7 -13 -16 -13 -15
0 -15 2 -1 23 8 12 20 21 26 20 6 -2 11 2 11 7 0 13 27 13 35 -1z m50 -19
c-28 -12 -37 -12 -30 0 3 6 16 10 28 9 21 0 21 -1 2 -9z m-595 -350 c0 -5 -4
-10 -10 -10 -5 0 -10 5 -10 10 0 6 5 10 10 10 6 0 10 -4 10 -10z m-220 -667
c-10 -16 -11 -15 -6 7 3 14 6 32 7 40 1 8 4 5 6 -7 2 -12 -1 -30 -7 -40z"/>
        <path d="M6553 6915 c-50 -18 -102 -40 -114 -49 -30 -21 -17 -21 23 0 17 9 58
25 92 36 59 19 122 48 101 46 -5 0 -51 -15 -102 -33z"/>
        <path d="M6420 6820 c-8 -5 -10 -10 -5 -10 6 0 17 5 25 10 8 5 11 10 5 10 -5
0 -17 -5 -25 -10z"/>
        <path d="M5240 6750 c0 -5 5 -10 10 -10 6 0 10 5 10 10 0 6 -4 10 -10 10 -5 0
-10 -4 -10 -10z"/>
        <path d="M5135 6740 c-3 -5 -1 -10 4 -10 6 0 11 5 11 10 0 6 -2 10 -4 10 -3 0
-8 -4 -11 -10z"/>
        <path d="M6280 6730 c0 -5 7 -7 15 -4 8 4 15 8 15 10 0 2 -7 4 -15 4 -8 0 -15
-4 -15 -10z"/>
        <path d="M6235 6660 c3 -5 8 -10 11 -10 2 0 4 5 4 10 0 6 -5 10 -11 10 -5 0
-7 -4 -4 -10z"/>
        <path d="M7469 6633 c-13 -16 -12 -17 4 -4 9 7 17 15 17 17 0 8 -8 3 -21 -13z"/>
        <path d="M5028 6633 c7 -3 16 -2 19 1 4 3 -2 6 -13 5 -11 0 -14 -3 -6 -6z"/>
        <path d="M4930 6535 c0 -8 5 -15 10 -15 6 0 10 7 10 15 0 8 -4 15 -10 15 -5 0
-10 -7 -10 -15z"/>
        <path d="M6990 6447 c-122 -115 -288 -256 -418 -356 -75 -58 -169 -132 -207
-163 -145 -117 -753 -554 -960 -690 -22 -14 -139 -91 -260 -170 -121 -80 -272
-176 -335 -213 -63 -37 -142 -85 -175 -105 -62 -39 -167 -97 -246 -136 -26
-12 -53 -29 -60 -36 -8 -7 -37 -24 -64 -38 -87 -43 -136 -72 -132 -77 3 -2 78
34 168 80 288 148 336 175 479 262 47 28 114 69 150 90 36 21 95 60 131 86 36
27 88 60 115 74 27 15 101 61 165 103 64 42 164 109 223 147 59 39 145 98 192
133 47 34 92 62 100 62 8 0 14 4 14 10 0 12 82 65 95 61 5 -1 7 1 3 5 -5 4 15
23 43 41 28 19 59 42 68 51 60 56 143 113 157 108 8 -3 13 -2 10 3 -3 5 54 56
127 115 254 203 423 347 557 476 74 71 131 129 125 129 -5 1 -35 -23 -65 -52z"/>
        <path d="M4815 6481 c-3 -6 4 -8 16 -6 30 6 37 15 11 15 -11 0 -23 -4 -27 -9z"/>
        <path d="M4214 6115 c-18 -14 -18 -14 4 -10 12 2 22 -1 22 -6 0 -6 5 -7 10 -4
15 9 12 35 -3 35 -7 0 -22 -7 -33 -15z"/>
        <path d="M4103 6075 c-18 -8 -33 -21 -33 -30 0 -8 -4 -16 -10 -16 -5 -1 -16
-2 -22 -3 -7 0 -14 -12 -14 -26 -1 -13 -7 -26 -13 -28 -6 -2 -11 -13 -11 -23
0 -11 -4 -18 -9 -15 -5 3 -12 -1 -15 -10 -4 -10 -2 -13 7 -8 25 14 46 37 42
44 -5 8 110 100 125 100 4 0 10 7 14 15 7 19 -18 19 -61 0z"/>
        <path d="M4213 6073 c-19 -7 -16 -20 7 -26 12 -3 18 -1 14 5 -4 6 0 14 7 19
12 7 11 9 -1 8 -8 0 -21 -3 -27 -6z"/>
        <path d="M4190 6010 c-7 -13 -7 -20 -1 -20 6 0 15 9 21 20 7 13 7 20 1 20 -6
0 -15 -9 -21 -20z"/>
        <path d="M3641 5146 c-62 -43 -287 -220 -345 -271 -54 -49 -21 -33 49 22 46
37 60 45 40 24 -31 -34 -105 -87 -117 -83 -12 3 -317 -299 -378 -375 -73 -91
-100 -141 -100 -187 0 -51 34 -71 122 -71 56 0 63 -2 45 -11 -39 -20 -199 -47
-243 -40 -29 4 -44 2 -47 -7 -3 -9 -9 -7 -22 5 -17 15 -17 20 -2 65 25 76 62
135 141 225 104 117 216 233 226 233 4 0 56 46 114 103 58 56 106 99 106 95 0
-4 15 8 34 26 22 22 39 31 48 26 7 -5 10 -5 6 -1 -4 4 8 20 25 35 50 42 131
101 142 103 6 1 24 14 40 29 17 15 41 37 55 49 23 20 22 20 -10 -2 -19 -12
-84 -60 -145 -105 -112 -84 -159 -109 -95 -50 19 18 31 29 26 25 -16 -12 -28
-9 -20 5 5 8 3 8 -9 -2 -9 -7 -15 -17 -12 -21 5 -8 -24 -24 -38 -22 -4 1 -6
-3 -5 -9 2 -6 -3 -14 -11 -17 -10 -3 -11 0 -5 9 7 12 5 12 -9 0 -9 -7 -15 -17
-12 -21 8 -13 -20 -41 -42 -43 -12 0 -20 -3 -18 -5 2 -3 -16 -20 -41 -39 -25
-19 -41 -39 -38 -45 4 -7 2 -8 -5 -4 -12 8 -113 -80 -295 -254 -97 -92 -258
-299 -287 -368 -24 -56 -24 -75 2 -98 47 -42 288 -14 509 58 86 28 397 148
513 199 114 50 528 251 524 255 -2 2 -52 -17 -113 -42 -359 -150 -628 -223
-820 -224 -67 0 -84 3 -102 20 -12 12 -22 27 -22 35 0 32 40 118 83 177 46 64
252 274 342 347 28 23 68 57 90 75 23 19 70 54 105 79 74 52 114 87 106 94 -4
5 -124 -84 -231 -172 -27 -23 -66 -52 -85 -64 -31 -20 -30 -19 8 14 23 20 39
42 36 47 -5 7 -2 8 5 3 15 -9 63 33 54 48 -4 6 -1 7 6 2 8 -4 28 7 54 32 23
22 55 49 70 61 25 18 74 73 65 72 -2 0 -32 -20 -67 -44z m-371 -231 c-18 -19
-36 -32 -39 -30 -6 7 50 65 63 65 5 0 -5 -16 -24 -35z m-200 -178 c0 -2 -15
-16 -32 -33 l-33 -29 29 33 c28 30 36 37 36 29z"/>
        <path d="M3513 5150 c-46 -27 -41 -34 5 -8 46 27 48 28 36 28 -5 0 -24 -9 -41
-20z"/>
        <path d="M3404 5068 l-29 -33 33 29 c17 17 32 31 32 33 0 8 -8 1 -36 -29z"/>
        <path d="M3434 5068 l-29 -33 33 29 c30 28 37 36 29 36 -2 0 -16 -15 -33 -32z"/>
        <path d="M2821 4640 c-40 -33 -71 -60 -67 -60 3 0 -2 -8 -11 -18 -10 -10 -23
-17 -29 -15 -6 2 -14 -3 -18 -13 -6 -15 -4 -15 11 -3 15 12 16 12 10 -5 -4
-10 14 3 40 30 27 27 72 70 100 97 72 65 53 58 -36 -13z"/>
        <path d="M3084 4524 c-8 -19 -17 -47 -20 -62 -6 -30 10 -82 25 -82 5 0 4 12
-4 27 -14 27 -10 78 8 101 5 6 6 12 3 12 -4 0 -2 9 4 20 6 11 8 20 5 20 -3 0
-13 -16 -21 -36z"/>
        <path d="M2590 4447 c-14 -12 -47 -47 -75 -76 -42 -47 -45 -51 -15 -29 19 15
54 47 77 72 22 24 44 42 47 39 3 -4 6 -1 6 5 0 17 -12 14 -40 -11z"/>
        <path d="M4060 4435 c-25 -14 -38 -25 -30 -25 8 0 33 12 55 25 52 32 34 32
-25 0z"/>
        <path d="M3138 4363 c12 -2 30 -2 40 0 9 3 -1 5 -23 4 -22 0 -30 -2 -17 -4z"/>
        <path d="M2960 4046 c0 -2 7 -7 16 -10 8 -3 12 -2 9 4 -6 10 -25 14 -25 6z"/>
        <path d="M3251 4039 c-13 -5 -21 -12 -18 -15 3 -3 18 1 34 10 31 17 21 20 -16
5z"/>
        <path d="M2895 3888 c-59 -20 -72 -28 -35 -22 19 4 46 12 60 20 29 15 18 16
-25 2z"/>
        <path d="M2790 3850 c-8 -5 -10 -10 -5 -10 6 0 17 5 25 10 8 5 11 10 5 10 -5
0 -17 -5 -25 -10z"/>
        <path d="M2720 3830 c-20 -6 -21 -8 -5 -8 11 0 29 3 40 8 25 11 -1 11 -35 0z"/>
        <path d="M2668 3815 c-13 -13 -195 -38 -283 -38 -55 0 -88 -2 -72 -4 15 -3 25
-9 22 -14 -4 -5 20 -7 57 -3 93 8 287 45 294 55 5 9 -9 13 -18 4z"/>
        <path d="M2813 3780 c-34 -14 -28 -21 7 -9 17 6 30 13 30 15 0 6 -12 4 -37 -6z"/>
        <path d="M2625 3730 c-43 -18 -61 -23 -75 -21 -8 1 -4 -5 10 -13 17 -10 27
-11 31 -4 4 6 14 8 23 5 9 -4 23 -4 32 0 13 5 13 8 2 15 -9 6 -6 8 11 6 13 -2
26 3 28 10 5 14 -31 15 -62 2z"/>
        <path d="M2442 3673 c-37 -15 -47 -29 -27 -36 9 -4 12 -1 9 7 -5 14 23 26 66
26 14 0 32 5 40 10 22 14 -50 8 -88 -7z"/>
        <path d="M2470 3650 c-13 -8 -12 -10 3 -10 9 0 17 5 17 10 0 12 -1 12 -20 0z"/>
        <path d="M2307 3630 c3 -11 10 -23 16 -27 7 -4 8 0 4 11 -4 10 -7 22 -7 27 0
5 -4 9 -9 9 -5 0 -7 -9 -4 -20z"/>
        <path d="M2361 3624 c0 -11 3 -14 6 -6 3 7 2 16 -1 19 -3 4 -6 -2 -5 -13z"/>
        <path d="M1907 3589 c7 -7 15 -10 18 -7 3 3 -2 9 -12 12 -14 6 -15 5 -6 -5z"/>
        <path d="M2211 7254 c0 -11 3 -14 6 -6 3 7 2 16 -1 19 -3 4 -6 -2 -5 -13z"/>
        <path d="M2226 7225 c-9 -14 -13 -25 -8 -25 5 0 14 11 20 25 6 14 10 25 8 25
-2 0 -11 -11 -20 -25z"/>
        <path d="M2166 7202 c-2 -4 4 -9 15 -9 11 -1 17 2 14 8 -7 11 -22 12 -29 1z"/>
        <path d="M6165 4850 c-3 -5 -1 -10 4 -10 6 0 11 5 11 10 0 6 -2 10 -4 10 -3 0
-8 -4 -11 -10z"/>
        <path d="M7680 2865 l0 -175 125 0 c120 0 127 1 150 25 24 23 25 30 25 142 0
65 -3 128 -6 139 -9 35 -47 44 -174 44 l-120 0 0 -175z"/>
        <path d="M5260 2843 c-60 -12 -60 -14 -60 -278 0 -233 1 -243 21 -261 29 -26
139 -26 169 1 19 17 20 30 20 260 0 177 -3 246 -12 258 -14 18 -92 30 -138 20z"/>
        <path d="M6030 2725 l0 -115 83 0 c118 0 127 8 127 111 0 117 -2 119 -115 119
l-95 0 0 -115z"/>
        <path d="M3858 2843 l-68 -4 0 -134 0 -135 93 0 c50 0 99 5 107 10 12 7 15 33
15 129 0 66 -2 121 -5 124 -10 8 -75 13 -142 10z"/>
        <path d="M1680 2170 c0 -5 7 -10 16 -10 8 0 12 5 9 10 -3 6 -10 10 -16 10 -5
0 -9 -4 -9 -10z"/>
        <path d="M8625 4230 c3 -5 8 -10 11 -10 2 0 4 5 4 10 0 6 -5 10 -11 10 -5 0
-7 -4 -4 -10z"/>
        <path d="M8970 4150 c0 -5 5 -10 10 -10 6 0 10 5 10 10 0 6 -4 10 -10 10 -5 0
-10 -4 -10 -10z"/>
        <path d="M9480 4010 c0 -5 7 -10 16 -10 8 0 12 5 9 10 -3 6 -10 10 -16 10 -5
0 -9 -4 -9 -10z"/>
        <path d="M560 3990 c0 -5 5 -10 11 -10 5 0 7 5 4 10 -3 6 -8 10 -11 10 -2 0
-4 -4 -4 -10z"/>
        <path d="M8895 3330 c-3 -5 -1 -10 4 -10 6 0 11 5 11 10 0 6 -2 10 -4 10 -3 0
-8 -4 -11 -10z"/>
        <path d="M8780 3320 c0 -5 5 -10 10 -10 6 0 10 5 10 10 0 6 -4 10 -10 10 -5 0
-10 -4 -10 -10z"/>
        <path d="M35 3311 c-25 -5 -30 -11 -33 -40 -3 -32 -2 -33 25 -26 15 4 50 9 78
11 27 3 51 7 53 9 10 10 -12 25 -35 25 -15 0 -34 6 -42 13 -10 8 -28 11 -46 8z"/>
        <path d="M8713 3305 c-15 -16 -16 -25 -5 -25 4 0 13 9 20 20 14 23 3 26 -15 5z"/>
        <path d="M8648 3303 c7 -3 16 -2 19 1 4 3 -2 6 -13 5 -11 0 -14 -3 -6 -6z"/>
        <path d="M8838 3303 c7 -3 16 -2 19 1 4 3 -2 6 -13 5 -11 0 -14 -3 -6 -6z"/>
        <path d="M8749 3289 c-10 -6 -4 -9 19 -9 17 0 32 2 32 4 0 9 -39 13 -51 5z"/>
        <path d="M190 3280 c-9 -6 -10 -10 -3 -10 6 0 15 5 18 10 8 12 4 12 -15 0z"/>
        <path d="M8858 3233 c7 -3 16 -2 19 1 4 3 -2 6 -13 5 -11 0 -14 -3 -6 -6z"/>
        <path d="M80 3209 c0 -5 11 -9 25 -9 14 0 25 2 25 4 0 2 -11 6 -25 8 -14 3
-25 1 -25 -3z"/>
        <path d="M236 3185 c-2 -7 10 -9 33 -7 56 5 60 9 14 13 -25 3 -44 0 -47 -6z"/>
        <path d="M9188 3193 c7 -3 16 -2 19 1 4 3 -2 6 -13 5 -11 0 -14 -3 -6 -6z"/>
        <path d="M9230 3190 c0 -5 5 -10 10 -10 6 0 10 5 10 10 0 6 -4 10 -10 10 -5 0
-10 -4 -10 -10z"/>
        <path d="M515 3149 c-4 -6 -1 -15 6 -20 21 -13 31 -11 27 8 -4 20 -24 28 -33
12z"/>
        <path d="M8742 3045 c2 -2 46 -7 98 -10 67 -4 90 -3 80 4 -13 9 -187 15 -178
6z"/>
        <path d="M8960 3040 c0 -13 11 -13 30 0 12 8 11 10 -7 10 -13 0 -23 -4 -23
-10z"/>
        <path d="M8688 3033 c7 -3 16 -2 19 1 4 3 -2 6 -13 5 -11 0 -14 -3 -6 -6z"/>
        <path d="M9820 3016 c0 -2 7 -7 16 -10 8 -3 12 -2 9 4 -6 10 -25 14 -25 6z"/>
    </g>
</svg>
